<svg width="188" height="202" viewBox="0 0 188 202" fill="none" xmlns="http://www.w3.org/2000/svg">
<circle cx="4" cy="4" r="4" fill="#C9ABFF" fill-opacity="0.32"/>
<circle cx="4" cy="148" r="4" fill="#C9ABFF" fill-opacity="0.32"/>
<circle cx="4" cy="76" r="4" fill="#C9ABFF" fill-opacity="0.32"/>
<circle cx="4" cy="40" r="4" fill="#C9ABFF" fill-opacity="0.32"/>
<circle cx="4" cy="184" r="4" fill="#C9ABFF" fill-opacity="0.32"/>
<circle cx="4" cy="112" r="4" fill="#C9ABFF" fill-opacity="0.32"/>
<circle cx="148" cy="4" r="4" fill="#C9ABFF" fill-opacity="0.32"/>
<circle cx="148" cy="148" r="4" fill="#C9ABFF" fill-opacity="0.32"/>
<circle cx="148" cy="76" r="4" fill="#C9ABFF" fill-opacity="0.32"/>
<circle cx="148" cy="40" r="4" fill="#C9ABFF" fill-opacity="0.32"/>
<circle cx="148" cy="184" r="4" fill="#C9ABFF" fill-opacity="0.32"/>
<circle cx="148" cy="112" r="4" fill="#C9ABFF" fill-opacity="0.32"/>
<circle cx="76" cy="4" r="4" fill="#C9ABFF" fill-opacity="0.32"/>
<circle cx="76" cy="148" r="4" fill="#C9ABFF" fill-opacity="0.32"/>
<circle cx="76" cy="76" r="4" fill="#C9ABFF" fill-opacity="0.32"/>
<circle cx="76" cy="40" r="4" fill="#C9ABFF" fill-opacity="0.32"/>
<circle cx="76" cy="184" r="4" fill="#C9ABFF" fill-opacity="0.32"/>
<circle cx="76" cy="112" r="4" fill="#C9ABFF" fill-opacity="0.32"/>
<circle cx="40" cy="4" r="4" fill="#C9ABFF" fill-opacity="0.32"/>
<circle cx="40" cy="148" r="4" fill="#C9ABFF" fill-opacity="0.32"/>
<circle cx="40" cy="76" r="4" fill="#C9ABFF" fill-opacity="0.32"/>
<circle cx="40" cy="40" r="4" fill="#C9ABFF" fill-opacity="0.32"/>
<circle cx="40" cy="184" r="4" fill="#C9ABFF" fill-opacity="0.32"/>
<circle cx="40" cy="112" r="4" fill="#C9ABFF" fill-opacity="0.32"/>
<circle cx="184" cy="4" r="4" fill="#C9ABFF" fill-opacity="0.32"/>
<circle cx="184" cy="148" r="4" fill="#C9ABFF" fill-opacity="0.32"/>
<circle cx="184" cy="76" r="4" fill="#C9ABFF" fill-opacity="0.32"/>
<circle cx="184" cy="40" r="4" fill="#C9ABFF" fill-opacity="0.32"/>
<circle cx="184" cy="184" r="4" fill="#C9ABFF" fill-opacity="0.32"/>
<circle cx="184" cy="112" r="4" fill="#C9ABFF" fill-opacity="0.32"/>
<circle cx="112" cy="4" r="4" fill="#C9ABFF" fill-opacity="0.32"/>
<circle cx="112" cy="148" r="4" fill="#C9ABFF" fill-opacity="0.32"/>
<circle cx="112" cy="76" r="4" fill="#C9ABFF" fill-opacity="0.32"/>
<circle cx="112" cy="40" r="4" fill="#C9ABFF" fill-opacity="0.32"/>
<circle cx="112" cy="184" r="4" fill="#C9ABFF" fill-opacity="0.32"/>
<circle cx="112" cy="112" r="4" fill="#C9ABFF" fill-opacity="0.32"/>
</svg>
