<?xml version="1.0" encoding="utf-8"?>
<svg width="390" height="390" viewBox="0 0 390 390" fill="none" xmlns="http://www.w3.org/2000/svg">
  <path opacity="0.7" d="M52.9871 130.328C52.9871 130.328 31.243 186.479 61.7987 243.041C92.3544 299.603 155.304 329.466 205.685 355.008C256.065 380.55 308.38 368.111 333.241 326.275C358.102 284.438 324.002 254.571 323.961 194.909C323.922 135.246 332.89 119.45 300.59 69.0446C268.29 18.6387 189.004 7.48315 129.068 44.8678C69.1331 82.2524 52.9871 130.328 52.9871 130.328Z" fill="white"/>
  <path d="M27.3844 221.017C23.9641 204.965 24.9064 187.989 31.8991 170.703C40.9088 148.428 60.2645 132.603 81.9524 123.368C113.47 109.947 144.409 109.692 170.028 83.3942C177.929 75.283 184.561 65.9924 192.632 58.0489C216.438 34.6169 251.282 37.4616 277.299 56.0404C331.577 94.7986 351.098 171.56 348.081 235.022C346.726 263.502 333.13 290.008 311.609 308.693C262.936 350.954 180.29 343.846 124.388 321.786C82.7004 305.335 37.1742 266.96 27.3844 221.017Z" fill="#92E3A9"/>
  <path opacity="0.7" d="M27.3844 221.017C23.9641 204.965 24.9064 187.989 31.8991 170.703C40.9088 148.428 60.2645 132.603 81.9524 123.368C113.47 109.947 144.409 109.692 170.028 83.3942C177.929 75.283 184.561 65.9924 192.632 58.0489C216.438 34.6169 251.282 37.4616 277.299 56.0404C331.577 94.7986 351.098 171.56 348.081 235.022C346.726 263.502 333.13 290.008 311.609 308.693C262.936 350.954 180.29 343.846 124.388 321.786C82.7004 305.335 37.1742 266.96 27.3844 221.017Z" fill="white"/>
  <path d="M232.058 310.281C232.058 313.58 231.247 316.685 229.812 319.407H225.576C225.452 319.407 225.327 319.423 225.202 319.446C224.461 319.618 223.907 320.273 223.907 321.076V326.209C220.678 328.549 216.7 329.929 212.41 329.929C205.889 329.929 200.109 326.755 196.545 321.864C194.166 318.619 192.762 314.61 192.762 310.281C192.762 299.431 201.56 290.633 212.41 290.633C223.26 290.633 232.058 299.431 232.058 310.281Z" stroke="#263238" stroke-miterlimit="10" stroke-linecap="round" stroke-linejoin="round"/>
  <path d="M217.207 317.521C220.296 317.903 223.081 318.652 225.202 319.448C224.461 319.619 223.907 320.275 223.907 321.078V326.21C220.678 328.55 216.7 329.931 212.41 329.931C205.889 329.931 200.11 326.756 196.545 321.866C196.654 321.671 196.771 321.476 196.896 321.281C197.629 320.087 202.052 318.184 208.323 317.506C208.783 316.577 208.791 315.361 208.682 314.354C208.658 314.175 208.635 314.011 208.612 313.847C208.206 313.465 207.886 313.083 207.746 312.763C207.473 312.124 207.192 311.273 206.942 310.291C206.935 310.548 206.896 310.743 206.818 310.821C206.357 311.25 205.936 310.509 205.874 309.862C205.811 309.206 205.008 308.083 204.821 307.444C204.634 306.804 205.039 306.094 205.375 305.845C205.507 305.759 205.679 305.798 205.85 305.891C205.616 304.87 205.445 303.614 205.585 302.444C205.897 299.831 207.551 298.817 207.551 298.817C207.551 298.817 208.3 296.563 212.707 296.578C217.457 296.602 217.933 299.168 217.933 299.168C217.933 299.168 220.39 300.806 219.422 305.884C219.586 305.798 219.742 305.759 219.867 305.845C220.21 306.094 220.608 306.804 220.421 307.444C220.241 308.083 219.43 309.206 219.368 309.862C219.305 310.509 218.884 311.25 218.424 310.821C218.377 310.774 218.354 310.688 218.33 310.579C218.089 311.546 217.808 312.397 217.535 313.021C217.379 313.395 217.02 313.801 216.56 314.191C216.458 315.041 216.513 315.719 216.638 316.258C216.778 316.843 217.004 317.248 217.207 317.521Z" stroke="#263238" stroke-miterlimit="10" stroke-linecap="round" stroke-linejoin="round"/>
  <path d="M231.821 328.992H225.574C224.652 328.992 223.904 328.245 223.904 327.323V321.075C223.904 320.153 224.652 319.406 225.574 319.406H231.821C232.743 319.406 233.491 320.153 233.491 321.075V327.323C233.491 328.245 232.743 328.992 231.821 328.992Z" stroke="#263238" stroke-miterlimit="10" stroke-linecap="round" stroke-linejoin="round"/>
  <path d="M231.081 323.653H229.242V321.812H228.154V323.653H226.314V324.74H228.154V326.58H229.242V324.74H231.081V323.653Z" fill="#263238"/>
  <path d="M109.582 152.167C109.582 156.746 108.451 161.059 106.462 164.85H99.9104C98.99 164.85 98.2412 165.599 98.2412 166.519V174.319C93.7484 177.572 88.226 179.491 82.259 179.491C73.1954 179.491 65.1614 175.076 60.1928 168.274C56.8934 163.758 54.9434 158.189 54.9434 152.167C54.9434 137.082 67.1738 124.852 82.259 124.852C97.3442 124.852 109.582 137.082 109.582 152.167Z" stroke="#263238" stroke-miterlimit="10" stroke-linecap="round" stroke-linejoin="round"/>
  <path d="M101.231 161.941L68.3422 168.341C67.1714 168.569 66.0373 167.805 65.8095 166.634L61.5851 144.927C61.3573 143.756 62.1217 142.622 63.2925 142.394L96.1812 135.993C97.352 135.766 98.4861 136.53 98.7138 137.701L102.938 159.408C103.167 160.579 102.402 161.713 101.231 161.941Z" stroke="#263238" stroke-miterlimit="10" stroke-linecap="round" stroke-linejoin="round"/>
  <path d="M61.7461 145.757L79.5316 155.442C81.7172 156.633 84.4402 156.102 86.0197 154.18L98.8749 138.531" stroke="#263238" stroke-miterlimit="10" stroke-linecap="round" stroke-linejoin="round"/>
  <path d="M68.5293 166.219L79.5328 155.438" stroke="#263238" stroke-miterlimit="10" stroke-linecap="round" stroke-linejoin="round"/>
  <path d="M100.084 160.084L86.0195 154.18" stroke="#263238" stroke-miterlimit="10" stroke-linecap="round" stroke-linejoin="round"/>
  <path d="M109.905 178.182H99.9133C98.9914 178.182 98.2441 177.435 98.2441 176.513V166.521C98.2441 165.599 98.9914 164.852 99.9133 164.852H109.905C110.827 164.852 111.574 165.599 111.574 166.521V176.513C111.574 177.435 110.827 178.182 109.905 178.182Z" stroke="#263238" stroke-miterlimit="10" stroke-linecap="round" stroke-linejoin="round"/>
  <path d="M108.223 170.762H105.665V168.203H104.153V170.762H101.594V172.273H104.153V174.832H105.665V172.273H108.223V170.762Z" fill="#263238"/>
  <path d="M324.203 261.533H299.396L299.876 260.77C302.041 257.335 302.974 253.324 302.955 249.266V249.219C302.955 244.014 307.436 239.862 312.745 240.417C316.737 240.831 320.023 244.022 320.559 247.996C320.626 248.457 320.644 248.909 320.644 249.351C320.578 253.277 321.435 257.165 323.534 260.479L324.203 261.533Z" stroke="#263238" stroke-miterlimit="10" stroke-linecap="round" stroke-linejoin="round"/>
  <path d="M309.793 240.176C308.684 239.067 308.684 237.269 309.793 236.16C310.902 235.051 312.7 235.051 313.809 236.16C314.918 237.269 314.918 239.067 313.809 240.176" stroke="#263238" stroke-miterlimit="10" stroke-linecap="round" stroke-linejoin="round"/>
  <path d="M324.836 264.076H298.764C298.182 264.076 297.709 263.604 297.709 263.022V262.586C297.709 262.004 298.181 261.531 298.764 261.531H324.835C325.417 261.531 325.89 262.003 325.89 262.586V263.022C325.89 263.604 325.418 264.076 324.836 264.076Z" stroke="#263238" stroke-miterlimit="10" stroke-linecap="round" stroke-linejoin="round"/>
  <path d="M311.8 270.518C312.996 270.518 313.965 269.549 313.965 268.353C313.965 267.157 312.996 266.188 311.8 266.188C310.604 266.188 309.635 267.157 309.635 268.353C309.635 269.549 310.604 270.518 311.8 270.518Z" stroke="#263238" stroke-miterlimit="10" stroke-linecap="round" stroke-linejoin="round"/>
  <path d="M335.51 254.806C335.51 258.776 334.535 262.528 332.811 265.819H327.343C326.423 265.819 325.674 266.568 325.674 267.489V274.041C321.774 276.856 316.977 278.518 311.798 278.518C303.936 278.518 296.962 274.688 292.649 268.783C289.779 264.868 288.086 260.04 288.086 254.806C288.086 241.717 298.71 231.094 311.798 231.094C324.894 231.094 335.51 241.717 335.51 254.806Z" stroke="#263238" stroke-miterlimit="10" stroke-linecap="round" stroke-linejoin="round"/>
  <path d="M335.574 277.39H327.343C326.421 277.39 325.674 276.643 325.674 275.721V267.49C325.674 266.568 326.421 265.82 327.343 265.82H335.574C336.496 265.82 337.244 266.568 337.244 267.49V275.721C337.244 276.643 336.496 277.39 335.574 277.39Z" stroke="#263238" stroke-miterlimit="10" stroke-linecap="round" stroke-linejoin="round"/>
  <path d="M334.335 270.947H332.115V268.727H330.803V270.947H328.582V272.259H330.803V274.48H332.115V272.259H334.335V270.947Z" fill="#263238"/>
  <path d="M332.195 60.9288V231.203C332.195 234.198 329.769 236.624 326.774 236.624H151.874C148.879 236.624 146.453 234.198 146.453 231.203V60.9288C146.453 57.9336 148.879 55.5078 151.874 55.5078H326.774C329.769 55.5078 332.195 57.9336 332.195 60.9288Z" fill="white"/>
  <mask id="mask0_498_2383" style="mask-type:luminance" maskUnits="userSpaceOnUse" x="146" y="55" width="187" height="182">
    <path d="M332.195 60.9288V231.203C332.195 234.198 329.769 236.624 326.774 236.624H151.874C148.879 236.624 146.453 234.198 146.453 231.203V60.9288C146.453 57.9336 148.879 55.5078 151.874 55.5078H326.774C329.769 55.5078 332.195 57.9336 332.195 60.9288Z" fill="white"/>
  </mask>
  <g mask="url(#mask0_498_2383)">
    <path d="M303.433 222.316H260.381C254.773 222.316 250.227 217.77 250.227 212.162C250.227 206.554 254.772 202.008 260.381 202.008H303.433C309.041 202.008 313.588 206.554 313.588 212.162C313.588 217.769 309.042 222.316 303.433 222.316Z" fill="#92E3A9" stroke="#263238" stroke-miterlimit="10" stroke-linecap="round" stroke-linejoin="round"/>
    <path d="M270.885 217.13H269.241L268.96 215.248H266.959L266.678 217.13H265.182L266.841 206.758H269.227L270.885 217.13ZM267.166 213.84H268.737L267.966 208.595H267.937L267.166 213.84Z" fill="#263238"/>
    <path d="M276.356 213.264V214.643C276.356 216.302 275.526 217.25 273.926 217.25C272.325 217.25 271.496 216.302 271.496 214.643V209.249C271.496 207.589 272.326 206.641 273.926 206.641C275.526 206.641 276.356 207.589 276.356 209.249V210.256H274.815V209.145C274.815 208.404 274.489 208.123 273.97 208.123C273.452 208.123 273.126 208.404 273.126 209.145V214.746C273.126 215.487 273.452 215.754 273.97 215.754C274.489 215.754 274.815 215.487 274.815 214.746V213.264H276.356V213.264Z" fill="#263238"/>
    <path d="M282.077 213.264V214.643C282.077 216.302 281.247 217.25 279.646 217.25C278.046 217.25 277.217 216.302 277.217 214.643V209.249C277.217 207.589 278.046 206.641 279.646 206.641C281.247 206.641 282.077 207.589 282.077 209.249V210.256H280.536V209.145C280.536 208.404 280.21 208.123 279.691 208.123C279.172 208.123 278.846 208.404 278.846 209.145V214.746C278.846 215.487 279.172 215.754 279.691 215.754C280.21 215.754 280.536 215.487 280.536 214.746V213.264H282.077V213.264Z" fill="#263238"/>
    <path d="M284.701 211.129H286.938V212.611H284.701V215.648H287.516V217.13H283.07V206.758H287.516V208.239H284.701V211.129Z" fill="#263238"/>
    <path d="M293.358 209.321V210.669C293.358 212.329 292.558 213.233 290.928 213.233H290.158V217.13H288.527V206.758H290.928C292.557 206.758 293.358 207.661 293.358 209.321ZM290.157 208.24V211.751H290.927C291.445 211.751 291.727 211.514 291.727 210.773V209.218C291.727 208.477 291.445 208.24 290.927 208.24H290.157Z" fill="#263238"/>
    <path d="M293.641 206.758H298.679V208.239H296.975V217.129H295.345V208.239H293.641V206.758H293.641Z" fill="#263238"/>
  </g>
  <mask id="mask1_498_2383" style="mask-type:luminance" maskUnits="userSpaceOnUse" x="146" y="55" width="187" height="182">
    <path d="M332.195 60.9288V231.203C332.195 234.198 329.769 236.624 326.774 236.624H151.874C148.879 236.624 146.453 234.198 146.453 231.203V60.9288C146.453 57.9336 148.879 55.5078 151.874 55.5078H326.774C329.769 55.5078 332.195 57.9336 332.195 60.9288Z" fill="white"/>
  </mask>
  <g mask="url(#mask1_498_2383)">
    <path d="M218.269 222.316H175.217C169.609 222.316 165.062 217.77 165.062 212.162C165.062 206.554 169.608 202.008 175.217 202.008H218.269C223.877 202.008 228.423 206.554 228.423 212.162C228.423 217.769 223.877 222.316 218.269 222.316Z" fill="#92E3A9"/>
    <mask id="mask2_498_2383" style="mask-type:luminance" maskUnits="userSpaceOnUse" x="165" y="202" width="64" height="21">
      <path d="M218.269 222.316H175.217C169.609 222.316 165.062 217.77 165.062 212.162C165.062 206.554 169.608 202.008 175.217 202.008H218.269C223.877 202.008 228.423 206.554 228.423 212.162C228.423 217.769 223.877 222.316 218.269 222.316Z" fill="white"/>
    </mask>
    <g mask="url(#mask2_498_2383)">
      <path opacity="0.6" d="M218.269 222.316H175.217C169.609 222.316 165.062 217.77 165.062 212.162C165.062 206.554 169.608 202.008 175.217 202.008H218.269C223.877 202.008 228.423 206.554 228.423 212.162C228.423 217.769 223.877 222.316 218.269 222.316Z" fill="white"/>
    </g>
    <path d="M218.269 222.316H175.217C169.609 222.316 165.062 217.77 165.062 212.162C165.062 206.554 169.608 202.008 175.217 202.008H218.269C223.877 202.008 228.423 206.554 228.423 212.162C228.423 217.769 223.877 222.316 218.269 222.316Z" stroke="#263238" stroke-miterlimit="10" stroke-linecap="round" stroke-linejoin="round"/>
    <path d="M178.912 206.758H181.491C183.121 206.758 183.92 207.661 183.92 209.321V214.566C183.92 216.226 183.121 217.13 181.491 217.13H178.912V206.758ZM180.542 208.24V215.648H181.461C181.98 215.648 182.291 215.381 182.291 214.641V209.248C182.291 208.507 181.981 208.24 181.461 208.24H180.542Z" fill="#263238"/>
    <path d="M186.589 211.129H188.826V212.611H186.589V215.648H189.404V217.13H184.959V206.758H189.404V208.239H186.589V211.129Z" fill="#263238"/>
    <path d="M195.141 213.264V214.643C195.141 216.302 194.312 217.25 192.711 217.25C191.11 217.25 190.281 216.302 190.281 214.643V209.249C190.281 207.589 191.11 206.641 192.711 206.641C194.312 206.641 195.141 207.589 195.141 209.249V210.256H193.6V209.145C193.6 208.404 193.274 208.123 192.755 208.123C192.237 208.123 191.911 208.404 191.911 209.145V214.746C191.911 215.487 192.237 215.754 192.755 215.754C193.274 215.754 193.6 215.487 193.6 214.746V213.264H195.141V213.264Z" fill="#263238"/>
    <path d="M196.137 206.758H197.767V215.647H200.449V217.129H196.137V206.758Z" fill="#263238"/>
    <path d="M201.16 206.758H202.79V217.13H201.16V206.758Z" fill="#263238"/>
    <path d="M205.459 209.617H205.43V217.13H203.963V206.758H206.007L207.652 212.966H207.681V206.758H209.134V217.13H207.459L205.459 209.617Z" fill="#263238"/>
    <path d="M211.937 211.129H214.174V212.611H211.937V215.648H214.752V217.13H210.307V206.758H214.752V208.239H211.937V211.129Z" fill="#263238"/>
  </g>
  <mask id="mask3_498_2383" style="mask-type:luminance" maskUnits="userSpaceOnUse" x="146" y="55" width="187" height="182">
    <path d="M332.195 60.9288V231.203C332.195 234.198 329.769 236.624 326.774 236.624H151.874C148.879 236.624 146.453 234.198 146.453 231.203V60.9288C146.453 57.9336 148.879 55.5078 151.874 55.5078H326.774C329.769 55.5078 332.195 57.9336 332.195 60.9288Z" fill="white"/>
  </mask>
  <g mask="url(#mask3_498_2383)">
    <path d="M281.607 137.244C281.607 145.964 278.97 154.064 274.444 160.8C266.849 172.093 253.952 179.527 239.324 179.527C225.297 179.527 212.859 172.694 205.173 162.17C200.06 155.182 197.041 146.566 197.041 137.244C197.041 113.895 215.975 94.9609 239.324 94.9609C262.673 94.9609 281.607 113.895 281.607 137.244Z" fill="#92E3A9" stroke="#263238" stroke-miterlimit="10" stroke-linecap="round" stroke-linejoin="round"/>
    <path d="M274.445 160.796C266.849 172.089 253.953 179.523 239.325 179.523C225.297 179.523 212.86 172.69 205.174 162.167C205.42 161.746 205.671 161.327 205.93 160.912C207.514 158.333 217.036 154.247 230.54 152.78C233.429 152.457 236.5 152.263 239.713 152.231C243.107 152.192 246.449 152.412 249.642 152.813C261.361 154.274 271.122 158.158 274.445 160.796Z" fill="#757575" stroke="#263238" stroke-miterlimit="10" stroke-linecap="round" stroke-linejoin="round"/>
    <path d="M250.613 153.811C250.613 153.811 247.649 159.85 240.052 159.857C233.831 159.857 229.295 154.461 229.295 154.461C231.483 152.497 231.615 148.862 231.294 146.004C231.036 143.669 230.477 141.852 230.477 141.852H249.084C247.951 145.57 247.993 148.241 248.434 150.099C249.083 152.833 250.613 153.811 250.613 153.811Z" fill="white" stroke="#263238" stroke-miterlimit="10" stroke-linecap="round" stroke-linejoin="round"/>
    <path d="M248.431 150.099C234.982 153.622 232.312 145.94 232.312 145.94L231.292 146.004C231.034 143.669 230.475 141.852 230.475 141.852H249.082C247.949 145.57 247.991 148.24 248.431 150.099Z" fill="#263238"/>
    <path d="M253.133 128.787C253.133 128.787 254.632 127.158 255.368 127.694C256.105 128.23 256.974 129.747 256.573 131.13C256.171 132.513 254.431 134.923 254.297 136.329C254.163 137.734 253.261 139.326 252.273 138.397C251.285 137.466 253.133 128.787 253.133 128.787Z" fill="white" stroke="#263238" stroke-miterlimit="10" stroke-linecap="round" stroke-linejoin="round"/>
    <path d="M226.424 128.787C226.424 128.787 224.925 127.158 224.189 127.694C223.452 128.23 222.583 129.747 222.984 131.13C223.386 132.513 225.126 134.923 225.26 136.329C225.394 137.734 226.296 139.326 227.284 138.397C228.272 137.466 226.424 128.787 226.424 128.787Z" fill="white" stroke="#263238" stroke-miterlimit="10" stroke-linecap="round" stroke-linejoin="round"/>
    <path d="M239.462 109.961C258.309 109.961 253.829 135.063 250.36 143.122C249.143 145.952 242.83 149.666 239.779 149.666C236.94 149.666 230.445 145.227 229.293 142.569C225.785 134.47 221.498 109.961 239.462 109.961Z" fill="white" stroke="#263238" stroke-miterlimit="10" stroke-linecap="round" stroke-linejoin="round"/>
    <path d="M242.656 125.465C242.656 125.465 247.565 123.948 249.082 126.982" stroke="#263238" stroke-miterlimit="10" stroke-linecap="round" stroke-linejoin="round"/>
    <path d="M246.29 129.595C246.29 130.175 245.996 130.644 245.633 130.644C245.271 130.644 244.977 130.174 244.977 129.595C244.977 129.016 245.271 128.547 245.633 128.547C245.996 128.547 246.29 129.016 246.29 129.595Z" fill="#263238"/>
    <path d="M236.9 125.465C236.9 125.465 231.992 123.948 230.475 126.982" stroke="#263238" stroke-miterlimit="10" stroke-linecap="round" stroke-linejoin="round"/>
    <path d="M233.266 129.595C233.266 130.175 233.56 130.644 233.922 130.644C234.285 130.644 234.579 130.174 234.579 129.595C234.579 129.016 234.285 128.547 233.922 128.547C233.56 128.547 233.266 129.016 233.266 129.595Z" fill="#263238"/>
    <path d="M247.263 116.385C247.263 116.385 240.503 118.928 232.739 116.385C232.739 116.385 230.196 116.236 229.192 117.515C228.188 118.794 229.192 122.743 229.459 124.349C229.727 125.955 227.25 127.072 227.585 131.131L226.627 132.532C226.627 132.532 223.968 125.999 224.637 120.377C225.307 114.755 228.856 112.569 228.856 112.569C228.856 112.569 230.474 107.714 239.958 107.75C250.179 107.789 251.211 113.323 251.211 113.323C251.211 113.323 258.141 117.944 253.015 133.003L251.903 131.131C251.903 131.131 252.444 128.097 250.609 125.42C249.716 124.117 251.145 120.2 250.809 118.192C250.476 116.184 247.263 116.385 247.263 116.385Z" fill="#263238"/>
    <path d="M240.9 128.539C240.9 128.539 240.96 133.127 242.16 134.615C242.778 135.381 241.572 137.038 239.719 137.33" stroke="#263238" stroke-miterlimit="10" stroke-linecap="round" stroke-linejoin="round"/>
    <path d="M235.652 140C235.652 140 236.114 141.7 237.405 142.253C238.696 142.806 242.613 142.576 243.35 142.115C244.087 141.654 244.456 140.148 244.456 140.148" fill="white"/>
    <path d="M235.652 140C235.652 140 236.114 141.7 237.405 142.253C238.696 142.806 242.613 142.576 243.35 142.115C244.087 141.654 244.456 140.148 244.456 140.148" stroke="#263238" stroke-miterlimit="10" stroke-linecap="round" stroke-linejoin="round"/>
    <path d="M235.238 139.898C235.238 139.898 239.138 141.004 244.977 139.898" stroke="#263238" stroke-miterlimit="10" stroke-linecap="round" stroke-linejoin="round"/>
    <path d="M249.081 116.581C249.081 116.581 246.974 119.708 240.053 120.375C240.053 120.375 240.754 119.801 241.278 118.622C241.278 118.622 238.456 121.028 233.923 120.375C229.391 119.723 226.896 123.245 226.896 123.245L225.722 128.542C225.722 128.542 221.577 123.832 224.53 116.348L223.469 117.228C223.469 117.228 224.643 107.176 236.702 106.809L235.238 105.928C235.238 105.928 247.278 103.361 251.982 111.285C251.982 111.285 256.173 112.078 257.201 119.312L256.027 118.549C256.027 118.549 257.89 124.563 254.023 129.59C254.023 129.59 249.081 121.631 249.081 116.581Z" fill="#263238"/>
  </g>
  <mask id="mask4_498_2383" style="mask-type:luminance" maskUnits="userSpaceOnUse" x="146" y="55" width="187" height="182">
    <path d="M332.195 60.9288V231.203C332.195 234.198 329.769 236.624 326.774 236.624H151.874C148.879 236.624 146.453 234.198 146.453 231.203V60.9288C146.453 57.9336 148.879 55.5078 151.874 55.5078H326.774C329.769 55.5078 332.195 57.9336 332.195 60.9288Z" fill="white"/>
  </mask>
  <g mask="url(#mask4_498_2383)">
    <path opacity="0.5" d="M285.289 82.3081H193.359C192.061 82.3081 191.01 81.2559 191.01 79.9587C191.01 78.6608 192.062 77.6094 193.359 77.6094H285.289C286.587 77.6094 287.639 78.6616 287.639 79.9587C287.639 81.2567 286.587 82.3081 285.289 82.3081Z" fill="#263238"/>
  </g>
  <mask id="mask5_498_2383" style="mask-type:luminance" maskUnits="userSpaceOnUse" x="146" y="55" width="187" height="182">
    <path d="M332.195 60.9288V231.203C332.195 234.198 329.769 236.624 326.774 236.624H151.874C148.879 236.624 146.453 234.198 146.453 231.203V60.9288C146.453 57.9336 148.879 55.5078 151.874 55.5078H326.774C329.769 55.5078 332.195 57.9336 332.195 60.9288Z" fill="white"/>
  </mask>
  <g mask="url(#mask5_498_2383)">
    <g opacity="0.4">
      <path d="M278.733 186.156H199.916C199.405 186.156 198.99 185.742 198.99 185.231C198.99 184.72 199.404 184.305 199.916 184.305H278.733C279.244 184.305 279.659 184.719 279.659 185.231C279.658 185.742 279.244 186.156 278.733 186.156Z" fill="black"/>
      <path d="M270.934 191.102H207.717C207.206 191.102 206.791 190.688 206.791 190.176C206.791 189.664 207.205 189.25 207.717 189.25H270.934C271.444 189.25 271.859 189.664 271.859 190.176C271.859 190.688 271.444 191.102 270.934 191.102Z" fill="black"/>
    </g>
  </g>
  <mask id="mask6_498_2383" style="mask-type:luminance" maskUnits="userSpaceOnUse" x="146" y="55" width="187" height="182">
    <path d="M332.195 60.9288V231.203C332.195 234.198 329.769 236.624 326.774 236.624H151.874C148.879 236.624 146.453 234.198 146.453 231.203V60.9288C146.453 57.9336 148.879 55.5078 151.874 55.5078H326.774C329.769 55.5078 332.195 57.9336 332.195 60.9288Z" fill="white"/>
  </mask>
  <g mask="url(#mask6_498_2383)">
    <path d="M280.949 177.508H267.809C265.74 177.508 264.062 175.831 264.062 173.761V160.621C264.062 158.553 265.74 156.875 267.809 156.875H280.949C283.017 156.875 284.695 158.552 284.695 160.621V173.761C284.695 175.831 283.018 177.508 280.949 177.508Z" fill="#263238" stroke="white" stroke-miterlimit="10" stroke-linecap="round" stroke-linejoin="round"/>
    <path d="M279.509 166.023H275.55V162.062H273.21V166.023H269.25V168.363H273.21V172.322H275.55V168.363H279.509V166.023Z" fill="white"/>
  </g>
  <mask id="mask7_498_2383" style="mask-type:luminance" maskUnits="userSpaceOnUse" x="146" y="55" width="187" height="182">
    <path d="M332.195 60.9288V231.203C332.195 234.198 329.769 236.624 326.774 236.624H151.874C148.879 236.624 146.453 234.198 146.453 231.203V60.9288C146.453 57.9336 148.879 55.5078 151.874 55.5078H326.774C329.769 55.5078 332.195 57.9336 332.195 60.9288Z" fill="white"/>
  </mask>
  <g mask="url(#mask7_498_2383)">
    <path opacity="0.3" d="M326.984 64.1728C326.984 66.2749 325.28 67.9784 323.179 67.9784C321.077 67.9784 319.373 66.2741 319.373 64.1728C319.373 62.0707 321.077 60.3672 323.179 60.3672C325.28 60.3672 326.984 62.0707 326.984 64.1728Z" fill="black"/>
  </g>
  <mask id="mask8_498_2383" style="mask-type:luminance" maskUnits="userSpaceOnUse" x="146" y="55" width="187" height="182">
    <path d="M332.195 60.9288V231.203C332.195 234.198 329.769 236.624 326.774 236.624H151.874C148.879 236.624 146.453 234.198 146.453 231.203V60.9288C146.453 57.9336 148.879 55.5078 151.874 55.5078H326.774C329.769 55.5078 332.195 57.9336 332.195 60.9288Z" fill="white"/>
  </mask>
  <g mask="url(#mask8_498_2383)">
    <path opacity="0.3" d="M316.062 64.1728C316.062 66.2749 314.358 67.9784 312.257 67.9784C310.155 67.9784 308.451 66.2741 308.451 64.1728C308.451 62.0707 310.155 60.3672 312.257 60.3672C314.358 60.3672 316.062 62.0707 316.062 64.1728Z" fill="black"/>
  </g>
  <mask id="mask9_498_2383" style="mask-type:luminance" maskUnits="userSpaceOnUse" x="146" y="55" width="187" height="182">
    <path d="M332.195 60.9288V231.203C332.195 234.198 329.769 236.624 326.774 236.624H151.874C148.879 236.624 146.453 234.198 146.453 231.203V60.9288C146.453 57.9336 148.879 55.5078 151.874 55.5078H326.774C329.769 55.5078 332.195 57.9336 332.195 60.9288Z" fill="white"/>
  </mask>
  <g mask="url(#mask9_498_2383)">
    <path opacity="0.3" d="M254.639 217.597C254.639 217.597 259.522 218.65 259.694 222.207C260.068 229.851 260.052 230.085 254.686 229.406C254.686 229.406 251.441 233.86 243.579 232.581C243.579 232.581 242.549 234.125 240.888 236.621H226.965C230.826 232.012 233.93 228.197 235.287 226.388C240.272 219.75 263.562 209.969 263.562 209.969C263.562 209.969 263.484 212.527 254.639 217.597Z" fill="black" fill-opacity="0.7"/>
  </g>
  <path d="M332.195 60.9288V231.203C332.195 234.198 329.769 236.624 326.774 236.624H151.874C148.879 236.624 146.453 234.198 146.453 231.203V60.9288C146.453 57.9336 148.879 55.5078 151.874 55.5078H326.774C329.769 55.5078 332.195 57.9336 332.195 60.9288Z" stroke="#263238" stroke-miterlimit="10" stroke-linecap="round" stroke-linejoin="round"/>
  <path d="M78.9437 346.433C78.9437 346.433 80.3197 336.439 81.3415 332.325C82.3633 328.21 88.3973 312.264 89.6609 303.344L74.2637 291.078C74.2637 291.078 68.4605 321.001 68.4605 325.698L65.2891 335.924" fill="white"/>
  <path d="M78.9437 346.433C78.9437 346.433 80.3197 336.439 81.3415 332.325C82.3633 328.21 88.3973 312.264 89.6609 303.344L74.2637 291.078C74.2637 291.078 68.4605 321.001 68.4605 325.698L65.2891 335.924" stroke="#263238" stroke-miterlimit="10" stroke-linecap="round" stroke-linejoin="round"/>
  <path d="M94.2097 314.628C90.9883 312.171 87.8059 309.574 84.6781 306.835C80.1463 302.9 75.7315 298.692 71.4883 294.24C72.4633 289.656 73.7425 284.318 75.3103 279.49C77.1121 273.909 80.7391 270.586 83.9839 268.656C84.0385 268.619 84.0931 268.59 84.1399 268.562C84.3895 268.42 84.6313 268.279 84.8653 268.157C85.3177 267.912 85.7545 267.696 86.1757 267.507C88.6483 266.396 90.5125 266.086 90.5125 266.086L93.8275 309.668L94.2097 314.628Z" fill="#92E3A9"/>
  <mask id="mask10_498_2383" style="mask-type:luminance" maskUnits="userSpaceOnUse" x="71" y="266" width="24" height="49">
    <path d="M94.2097 314.628C90.9883 312.171 87.8059 309.574 84.6781 306.835C80.1463 302.9 75.7315 298.692 71.4883 294.24C72.4633 289.656 73.7425 284.318 75.3103 279.49C77.1121 273.909 80.7391 270.586 83.9839 268.656C84.0385 268.619 84.0931 268.59 84.1399 268.562C84.3895 268.42 84.6313 268.279 84.8653 268.157C85.3177 267.912 85.7545 267.696 86.1757 267.507C88.6483 266.396 90.5125 266.086 90.5125 266.086L93.8275 309.668L94.2097 314.628Z" fill="white"/>
  </mask>
  <g mask="url(#mask10_498_2383)">
    <path opacity="0.3" d="M94.2097 314.628C90.9883 312.171 87.8059 309.574 84.6781 306.835C80.1463 302.9 75.7315 298.692 71.4883 294.24C72.4633 289.656 73.7425 284.318 75.3103 279.49C77.1121 273.909 80.7391 270.586 83.9839 268.656C84.0385 268.619 84.0931 268.59 84.1399 268.562C84.3895 268.42 84.6313 268.279 84.8653 268.157C85.3177 267.912 85.7545 267.696 86.1757 267.507C88.6483 266.396 90.5125 266.086 90.5125 266.086L93.8275 309.668L94.2097 314.628Z" fill="black" fill-opacity="0.7"/>
  </g>
  <path d="M94.2097 314.628C90.9883 312.171 87.8059 309.574 84.6781 306.835C80.1463 302.9 75.7315 298.692 71.4883 294.24C72.4633 289.656 73.7425 284.318 75.3103 279.49C77.1121 273.909 80.7391 270.586 83.9839 268.656C84.0385 268.619 84.0931 268.59 84.1399 268.562C84.3895 268.42 84.6313 268.279 84.8653 268.157C85.3177 267.912 85.7545 267.696 86.1757 267.507C88.6483 266.396 90.5125 266.086 90.5125 266.086L93.8275 309.668L94.2097 314.628Z" stroke="#263238" stroke-miterlimit="10" stroke-linecap="round" stroke-linejoin="round"/>
  <path d="M78.166 290.406C78.166 290.406 79.9577 302.596 88.1937 307.249" stroke="#263238" stroke-miterlimit="10" stroke-linecap="round" stroke-linejoin="round"/>
  <path d="M160.743 300.277C160.743 306.541 155.666 331.758 155.666 331.758L155.494 353.933C155.494 353.933 144.987 357.42 128.03 357.42C107.251 357.42 98.0469 351.859 97.2357 351.336C97.2123 351.32 97.1967 351.313 97.1733 351.297L100.262 335.923C100.262 335.923 83.9055 297.266 83.5623 295.94C83.0553 293.975 82.6185 291.986 82.2675 290.005C81.3939 285.114 81.0741 280.286 81.5889 276.097C81.9243 273.258 82.6497 270.7 83.8587 268.609C83.9445 268.453 84.0381 268.297 84.1395 268.141C84.5685 267.455 85.0599 266.815 85.6137 266.246C85.6605 266.191 85.7073 266.144 85.7619 266.09C86.2689 265.583 86.8149 265.107 87.4077 264.662C87.4077 264.662 87.4155 264.662 87.4155 264.655C87.6105 264.506 87.8133 264.366 88.0161 264.226C88.1799 264.109 88.3515 263.992 88.5231 263.882C88.6323 263.812 88.7415 263.734 88.8507 263.672C88.9911 263.578 89.1315 263.492 89.2797 263.407C89.4981 263.274 89.7165 263.149 89.9427 263.024C102.259 256.199 125.183 257.252 125.183 257.252C125.409 257.174 125.659 257.128 125.932 257.104C125.955 257.096 125.971 257.096 125.987 257.096C126.4 257.065 126.86 257.104 127.352 257.206C133.061 258.313 143.513 267.634 151.212 278.242C153.583 281.503 155.689 284.888 157.311 288.195C159.441 292.508 160.743 296.681 160.743 300.277Z" fill="#92E3A9"/>
  <path opacity="0.3" d="M160.602 298.157C154.347 296.378 149.035 292.424 149.035 292.424C143.505 293.461 138.17 287.954 136.781 285.006L154.924 283.836C155.805 285.287 156.601 286.745 157.311 288.188C159.035 291.683 160.22 295.084 160.602 298.157Z" fill="black" fill-opacity="0.7"/>
  <path opacity="0.3" d="M103.983 339.892C103.983 339.892 108.062 357.349 97.2357 351.335C97.2123 351.319 97.1967 351.312 97.1733 351.296L100.262 335.922C100.262 335.922 83.9055 297.265 83.5623 295.939C83.0553 293.974 82.6185 291.985 82.2675 290.004C81.3939 285.113 81.0741 280.285 81.5889 276.096C81.9243 273.257 82.6497 270.699 83.8587 268.608C83.9445 268.452 84.0381 268.296 84.1395 268.14C84.5685 267.454 85.0599 266.814 85.6137 266.245C85.6605 266.19 85.7073 266.143 85.7619 266.089C86.2689 265.582 86.8149 265.106 87.4077 264.661C87.4077 264.661 87.4155 264.661 87.4155 264.654C87.6105 264.505 87.8133 264.365 88.0161 264.225C88.1799 264.108 88.3515 263.991 88.5231 263.881C88.6323 263.811 88.7415 263.733 88.8507 263.671C88.9911 263.577 89.1315 263.491 89.2797 263.406C89.4981 263.273 89.7165 263.148 89.9427 263.023C101.276 263.897 113.873 269.248 116.307 280.277C116.307 280.277 115.277 297.148 111.572 303.318C109.271 307.164 108.491 325.119 119.871 319.924C116.307 337.88 103.983 339.892 103.983 339.892Z" fill="black" fill-opacity="0.7"/>
  <path d="M97.1756 351.3L100.261 335.923C100.261 335.923 83.9063 297.266 83.5623 295.94C83.0553 293.975 82.6185 291.986 82.2675 290.005C81.3939 285.114 81.0741 280.286 81.5889 276.097C81.9243 273.258 82.6497 270.7 83.8587 268.609C83.9445 268.453 84.0381 268.297 84.1395 268.141C84.5685 267.455 85.0599 266.815 85.6137 266.246C85.6605 266.191 85.7073 266.144 85.7619 266.09C86.2689 265.583 86.8149 265.107 87.4077 264.662C87.4077 264.662 87.4155 264.662 87.4155 264.655C98.7723 256.043 125.183 257.252 125.183 257.252C125.409 257.174 125.659 257.128 125.932 257.104C125.955 257.096 125.971 257.096 125.987 257.096C126.4 257.065 126.86 257.104 127.352 257.206C133.061 258.313 143.513 267.634 151.212 278.242C153.583 281.503 155.689 284.888 157.311 288.195C159.441 292.508 160.743 296.681 160.743 300.277C160.743 306.541 155.666 331.758 155.666 331.758L155.495 353.932" stroke="#263238" stroke-miterlimit="10" stroke-linecap="round" stroke-linejoin="round"/>
  <path d="M136.612 221.951C135.679 220.797 131.544 218.079 131.544 218.079C130.72 212.685 130.277 205.49 124.694 199.92C117.059 192.301 99.4378 194.704 93.6674 206.072C82.1421 228.777 103.924 250.163 130.571 245.644C132.841 245.259 134.372 243.035 134.681 232.479L135.395 231.01C135.395 231.01 134.659 228.492 134.432 227.222C135.777 225.909 137.297 222.797 136.612 221.951Z" fill="white" stroke="#263238" stroke-miterlimit="10" stroke-linecap="round" stroke-linejoin="round"/>
  <path d="M130.055 209.625C130.055 209.625 129.05 211.183 128.512 213.196" stroke="#263238" stroke-miterlimit="10" stroke-linecap="round" stroke-linejoin="round"/>
  <path d="M130.461 219.781C130.461 219.781 132.32 220.904 133.163 224.443" stroke="#263238" stroke-miterlimit="10" stroke-linecap="round" stroke-linejoin="round"/>
  <path d="M135.148 231.516C135.148 231.516 134.425 232.687 131.41 232.346" stroke="#263238" stroke-miterlimit="10" stroke-linecap="round" stroke-linejoin="round"/>
  <path d="M127.238 196.941C127.238 196.941 134.262 194.053 132.229 207.777C130.196 221.502 120.054 237.835 111.498 234.762L111.642 233.535C111.642 233.535 119.133 236.494 125.436 223.472C131.738 210.45 131.213 198.545 127.607 200.608L127.238 196.941Z" fill="#263238"/>
  <path d="M126.598 218.227C126.598 218.227 123.918 225.304 121.776 227.554C121.776 227.554 120.907 224.845 118.839 224.828C116.772 224.812 114.922 219.301 114.922 219.301L126.598 218.227Z" fill="#263238"/>
  <path d="M123.714 218.555C123.714 218.555 118.788 230.577 122.4 239.857C126.012 249.138 136.192 256.113 136.192 256.113L132.908 254.624C132.908 254.624 124.266 248.938 121.247 239.092C118.228 229.245 121.118 219.979 121.118 219.979L123.714 218.555Z" fill="#263238"/>
  <path d="M83.097 202.555C83.097 202.555 74.8485 205.945 75.3267 218.088C75.8056 230.233 84.1134 240.852 85.7904 256.376C87.249 269.877 72.5561 281.765 87.4369 297.542C87.4369 297.542 80.9076 287.4 82.9012 276.061C84.8949 264.722 91.7113 266.35 86.6546 247.889C81.5979 229.428 70.8471 218.501 81.952 206.736L83.097 202.555Z" fill="#263238"/>
  <path d="M130.988 252.993C115.962 244.615 120.048 226.731 120.048 226.731C131.367 218.407 132.872 202.774 130.8 198.782C128.728 194.789 124.203 196.136 124.203 196.136C106.191 187.568 84.0226 195.569 79.8121 208.176C74.4169 224.33 83.6302 236.746 88.1332 250.319C92.1767 262.506 82.8167 264.713 82.8463 276.852C81.071 299.442 104.272 308.92 104.272 308.92C104.272 308.92 102.267 307.84 102.267 305.372C102.267 302.903 108.593 302.903 112.759 295.937C116.212 290.161 116.485 276.062 117.642 269.246C119.163 263.075 121.151 258.147 125.182 257.246C135.81 254.874 144.971 265.186 144.971 265.186C144.971 265.186 146.013 261.371 130.988 252.993Z" fill="#263238"/>
  <g opacity="0.3">
    <path d="M126.599 198.602C128.238 201.481 115.945 216.705 111.497 229.87C107.05 243.036 111.576 250.741 111.576 250.741" stroke="white" stroke-miterlimit="10" stroke-linecap="round" stroke-linejoin="round"/>
    <path d="M99.0267 202.555C99.0267 202.555 85.6552 214.074 93.2664 235.138C100.878 256.203 97.5065 270.734 94.9754 282.086C92.4435 293.437 94.5012 297.346 97.5869 300.432" stroke="white" stroke-miterlimit="10" stroke-linecap="round" stroke-linejoin="round"/>
    <path d="M115.894 237.328C115.894 237.328 123.067 245.409 118.144 257.081C113.22 268.753 110.546 277.104 108.694 286.197C106.842 295.289 102.729 297.543 102.729 297.543" stroke="white" stroke-miterlimit="10" stroke-linecap="round" stroke-linejoin="round"/>
    <path d="M116.306 196.689C116.306 196.689 108.901 196.342 105.404 205.805C101.906 215.268 105.198 231.619 103.964 237.329" stroke="white" stroke-miterlimit="10" stroke-linecap="round" stroke-linejoin="round"/>
    <path d="M97.1746 196.688C97.1746 196.688 86.3131 197.138 82.8483 212.155C79.3836 227.171 89.8153 239.79 90.9237 251.493C92.0321 263.197 85.4496 274.025 85.8607 282.086C86.2725 290.146 90.9237 294.416 90.9237 294.416" stroke="white" stroke-miterlimit="10" stroke-linecap="round" stroke-linejoin="round"/>
  </g>
  <path d="M165.061 258.454C165.061 258.454 188.82 260.225 192.215 260.225C195.609 260.225 227.083 229.061 232.637 222.889C238.192 216.717 262.26 209.039 262.26 209.039C262.26 209.039 261.951 211.585 252.694 215.848C252.694 215.848 257.466 217.33 257.323 220.886C257.014 228.537 256.976 228.768 251.691 227.612C251.691 227.612 248.066 231.767 240.352 229.796C240.352 229.796 221.838 252.82 213.66 263.311C205.483 273.803 202.089 277.323 199.003 278.494C195.917 279.666 158.271 282.088 158.271 282.088L165.061 258.454Z" fill="white" stroke="#263238" stroke-miterlimit="10" stroke-linecap="round" stroke-linejoin="round"/>
  <path d="M135.147 286.456C147.471 294.17 168.145 284.604 168.145 284.604C168.145 284.604 171.848 267.82 168.145 257.081C168.145 257.081 142.221 252.03 128.029 256.9C126.563 257.403 125.472 258.548 124.758 260.123" fill="#92E3A9"/>
  <path d="M135.147 286.456C147.471 294.17 168.145 284.604 168.145 284.604C168.145 284.604 171.848 267.82 168.145 257.081C168.145 257.081 142.221 252.03 128.029 256.9C126.563 257.403 125.472 258.548 124.758 260.123" stroke="#263238" stroke-miterlimit="10" stroke-linecap="round" stroke-linejoin="round"/>
  <path d="M164.869 256.516C164.869 256.516 168.248 268.237 165.368 282.842" stroke="#263238" stroke-miterlimit="10" stroke-linecap="round" stroke-linejoin="round"/>
  <path d="M160.74 267.312C160.74 267.312 152.203 281.301 141.197 283.358" stroke="#263238" stroke-miterlimit="10" stroke-linecap="round" stroke-linejoin="round"/>
  <path d="M152.765 289.047C152.765 289.047 147.061 295.809 140.066 295.809" stroke="#263238" stroke-miterlimit="10" stroke-linecap="round" stroke-linejoin="round"/>
  <path d="M147.273 289.461C147.273 289.461 148.209 291.583 147.281 293.587L147.273 293.595C147.273 293.595 148.24 297.659 146.415 303.517C145.073 307.838 145.136 320.092 144.512 328.711C144.512 328.711 146.491 339.106 146.416 354.741" stroke="#263238" stroke-miterlimit="10" stroke-linecap="round" stroke-linejoin="round"/>
  <path d="M134.082 255.471C134.082 255.471 144.694 254.767 150.968 262.173" stroke="#263238" stroke-miterlimit="10" stroke-linecap="round" stroke-linejoin="round"/>
  <path d="M255.395 222.984C255.395 222.984 253.852 225.685 252 226.302C252 226.302 251.865 229.119 247.15 230.064" stroke="#263238" stroke-miterlimit="10" stroke-linecap="round" stroke-linejoin="round"/>
  <path d="M254.092 224.758C254.092 224.758 254.892 225.22 255.047 225.915" stroke="#263238" stroke-miterlimit="10" stroke-linecap="round" stroke-linejoin="round"/>
  <path d="M100.26 335.922C100.26 335.922 111.23 350.219 121.687 345.076" stroke="#263238" stroke-miterlimit="10" stroke-linecap="round" stroke-linejoin="round"/>
  <path d="M128.03 306.312C128.03 306.312 120.626 329.03 103.963 328.002" stroke="#263238" stroke-miterlimit="10" stroke-linecap="round" stroke-linejoin="round"/>
</svg>