<svg width="390" height="390" viewBox="0 0 390 390" fill="none" xmlns="http://www.w3.org/2000/svg">
<path opacity="0.7" d="M52.9871 130.328C52.9871 130.328 31.243 186.479 61.7987 243.041C92.3544 299.603 155.304 329.466 205.685 355.008C256.065 380.55 308.38 368.111 333.241 326.275C358.102 284.438 324.002 254.571 323.961 194.909C323.922 135.246 332.89 119.45 300.59 69.0446C268.29 18.6387 189.004 7.48315 129.068 44.8678C69.1331 82.2524 52.9871 130.328 52.9871 130.328Z" fill="white"/>
<path d="M87.8272 71.3299C91.0978 69.0671 94.5407 67.0532 98.1459 65.3278C124.138 52.8946 156.041 56.9881 181.022 71.3455C206.002 85.703 224.695 109.174 238.299 134.572C244.514 146.176 250.072 158.645 260.057 167.225C272.931 178.287 290.319 180.784 305.661 186.809C361.447 208.716 362.083 289.036 313.187 319.028C293.913 330.851 270.109 334.418 247.96 336.069C217.279 338.357 186.039 337.184 156.41 328.901C126.78 320.617 98.7464 304.857 78.9235 281.329C52.962 250.513 42.9562 208.617 44.265 168.345C44.9272 147.964 48.3538 127.413 56.9743 108.933C63.9054 94.0763 74.4136 80.6103 87.8272 71.3299Z" fill="#92E3A9"/>
<path opacity="0.7" d="M87.8272 71.3299C91.0978 69.0671 94.5407 67.0532 98.1459 65.3278C124.138 52.8946 156.041 56.9881 181.022 71.3455C206.002 85.703 224.695 109.174 238.299 134.572C244.514 146.176 250.072 158.645 260.057 167.225C272.931 178.287 290.319 180.784 305.661 186.809C361.447 208.716 362.083 289.036 313.187 319.028C293.913 330.851 270.109 334.418 247.96 336.069C217.279 338.357 186.039 337.184 156.41 328.901C126.78 320.617 98.7464 304.857 78.9235 281.329C52.962 250.513 42.9562 208.617 44.265 168.345C44.9272 147.964 48.3538 127.413 56.9743 108.933C63.9054 94.0763 74.4136 80.6103 87.8272 71.3299Z" fill="white"/>
<path d="M105.584 105.234C105.85 104.075 105.996 102.871 105.996 101.631C105.996 92.787 98.8258 85.6165 89.9806 85.6165C88.5345 85.6165 87.1336 85.8115 85.8013 86.1711C83.1642 81.5043 78.1605 78.3516 72.4181 78.3516C64.257 78.3516 57.5848 84.7156 57.0864 92.7511C56.3329 92.61 55.5576 92.5281 54.7628 92.5281C48.3067 92.5281 42.9949 97.4007 42.289 103.668C38.4982 103.75 35.4492 106.843 35.4492 110.653C35.4492 114.515 38.5801 117.646 42.4419 117.646H101.166C105.028 117.646 108.158 114.515 108.158 110.653C108.158 108.467 107.155 106.517 105.584 105.234Z" stroke="#263238" stroke-miterlimit="10" stroke-linecap="round" stroke-linejoin="round"/>
<path d="M62.8652 129.523V145.706" stroke="#263238" stroke-miterlimit="10" stroke-linecap="round" stroke-linejoin="round"/>
<path d="M62.8652 119.812V126.285" stroke="#263238" stroke-miterlimit="10" stroke-linecap="round" stroke-linejoin="round"/>
<path d="M62.8652 113.766V117.228" stroke="#263238" stroke-miterlimit="10" stroke-linecap="round" stroke-linejoin="round"/>
<path d="M59.8086 143.812L62.8646 147.596L65.9207 143.812" stroke="#263238" stroke-miterlimit="10" stroke-linecap="round" stroke-linejoin="round"/>
<path d="M73.2949 136.461V152.644" stroke="#263238" stroke-miterlimit="10" stroke-linecap="round" stroke-linejoin="round"/>
<path d="M73.2949 126.75V133.222" stroke="#263238" stroke-miterlimit="10" stroke-linecap="round" stroke-linejoin="round"/>
<path d="M73.2949 120.703V124.166" stroke="#263238" stroke-miterlimit="10" stroke-linecap="round" stroke-linejoin="round"/>
<path d="M70.2383 150.75L73.2943 154.533L76.3504 150.75" stroke="#263238" stroke-miterlimit="10" stroke-linecap="round" stroke-linejoin="round"/>
<path d="M83.0391 122.859V139.042" stroke="#263238" stroke-miterlimit="10" stroke-linecap="round" stroke-linejoin="round"/>
<path d="M83.0391 113.148V119.622" stroke="#263238" stroke-miterlimit="10" stroke-linecap="round" stroke-linejoin="round"/>
<path d="M83.0391 107.102V110.564" stroke="#263238" stroke-miterlimit="10" stroke-linecap="round" stroke-linejoin="round"/>
<path d="M79.9824 137.148L83.0392 140.931L86.0953 137.148" stroke="#263238" stroke-miterlimit="10" stroke-linecap="round" stroke-linejoin="round"/>
<path d="M237.997 214.571C237.73 213.412 237.585 212.208 237.585 210.967C237.585 202.123 244.755 194.952 253.599 194.952C255.046 194.952 256.446 195.147 257.779 195.507C260.416 190.84 265.42 187.688 271.162 187.688C279.323 187.688 285.996 194.052 286.494 202.087C287.247 201.946 288.023 201.864 288.818 201.864C295.274 201.864 300.585 206.737 301.291 213.004C305.082 213.086 308.131 216.179 308.131 219.989C308.131 223.851 305 226.982 301.138 226.982H242.415C238.553 226.982 235.422 223.851 235.422 219.989C235.421 217.804 236.426 215.853 237.997 214.571Z" stroke="#263238" stroke-miterlimit="10" stroke-linecap="round" stroke-linejoin="round"/>
<path d="M278.219 232.933V216.75" stroke="#263238" stroke-miterlimit="10" stroke-linecap="round" stroke-linejoin="round"/>
<path d="M278.219 242.644V236.172" stroke="#263238" stroke-miterlimit="10" stroke-linecap="round" stroke-linejoin="round"/>
<path d="M278.219 248.689V245.227" stroke="#263238" stroke-miterlimit="10" stroke-linecap="round" stroke-linejoin="round"/>
<path d="M281.274 218.642L278.218 214.859L275.162 218.642" stroke="#263238" stroke-miterlimit="10" stroke-linecap="round" stroke-linejoin="round"/>
<path d="M267.787 225.995V209.812" stroke="#263238" stroke-miterlimit="10" stroke-linecap="round" stroke-linejoin="round"/>
<path d="M267.787 235.707V229.234" stroke="#263238" stroke-miterlimit="10" stroke-linecap="round" stroke-linejoin="round"/>
<path d="M267.787 241.751V238.289" stroke="#263238" stroke-miterlimit="10" stroke-linecap="round" stroke-linejoin="round"/>
<path d="M270.843 211.705L267.787 207.922L264.73 211.705" stroke="#263238" stroke-miterlimit="10" stroke-linecap="round" stroke-linejoin="round"/>
<path d="M258.043 239.605V223.422" stroke="#263238" stroke-miterlimit="10" stroke-linecap="round" stroke-linejoin="round"/>
<path d="M258.043 249.317V242.844" stroke="#263238" stroke-miterlimit="10" stroke-linecap="round" stroke-linejoin="round"/>
<path d="M258.043 255.361V251.898" stroke="#263238" stroke-miterlimit="10" stroke-linecap="round" stroke-linejoin="round"/>
<path d="M261.098 225.314L258.042 221.531L254.986 225.314" stroke="#263238" stroke-miterlimit="10" stroke-linecap="round" stroke-linejoin="round"/>
<path d="M26.7793 347.469H365.271" stroke="#263238" stroke-miterlimit="10"/>
<path d="M282.975 299.516C282.975 299.516 296.42 300.576 296.981 310.497C296.981 310.497 283.365 316.766 282.975 299.516Z" fill="#92E3A9" stroke="#263238" stroke-miterlimit="10" stroke-linecap="round" stroke-linejoin="round"/>
<path d="M309.572 301.98C309.572 301.98 317.084 291.825 329.221 297.033C329.221 297.033 321.81 309.311 309.572 301.98Z" fill="#92E3A9" stroke="#263238" stroke-miterlimit="10" stroke-linecap="round" stroke-linejoin="round"/>
<path d="M328.193 269.916C328.193 269.916 330.352 289.454 312.568 284.074C312.568 284.074 318.216 269.71 328.193 269.916Z" fill="#92E3A9" stroke="#263238" stroke-miterlimit="10" stroke-linecap="round" stroke-linejoin="round"/>
<path d="M306.357 259.039C306.357 259.039 320.422 266.624 310.081 278.133C310.081 278.133 300.216 269.913 306.357 259.039Z" fill="#92E3A9" stroke="#263238" stroke-miterlimit="10" stroke-linecap="round" stroke-linejoin="round"/>
<path d="M289.051 276.495C289.051 276.495 304.343 274.952 304.343 289.108C304.343 289.108 289.051 289.71 289.051 276.495Z" fill="#92E3A9" stroke="#263238" stroke-miterlimit="10" stroke-linecap="round" stroke-linejoin="round"/>
<path d="M303.473 330.703C303.473 330.703 296.5 316.072 303.193 301.171C309.885 286.269 312.148 273.721 308.651 264.875" stroke="#263238" stroke-miterlimit="10" stroke-linecap="round" stroke-linejoin="round"/>
<path d="M294.074 280.305C294.074 280.305 303.241 283.946 306.356 293.388" stroke="#263238" stroke-miterlimit="10" stroke-linecap="round" stroke-linejoin="round"/>
<path d="M323.36 277.734C323.36 277.734 318.063 284.95 309.088 284.171" stroke="#263238" stroke-miterlimit="10" stroke-linecap="round" stroke-linejoin="round"/>
<path d="M323.359 299.109C323.359 299.109 308.688 303.336 302.857 301.952" stroke="#263238" stroke-miterlimit="10" stroke-linecap="round" stroke-linejoin="round"/>
<path d="M287.359 303.984C287.359 303.984 293.917 311.182 300.513 311.069" stroke="#263238" stroke-miterlimit="10" stroke-linecap="round" stroke-linejoin="round"/>
<path d="M286.621 319.109H317.407L314.182 347.25H289.846L286.621 319.109Z" fill="#263238"/>
<path d="M317.954 322.462H286.073C285.645 322.462 285.297 322.115 285.297 321.686V319.268C285.297 318.84 285.644 318.492 286.073 318.492H317.954C318.382 318.492 318.73 318.839 318.73 319.268V321.686C318.729 322.115 318.382 322.462 317.954 322.462Z" fill="#263238"/>
<path d="M289.051 322.461H307.594" stroke="white" stroke-miterlimit="10" stroke-linecap="round" stroke-linejoin="round"/>
<path d="M311.09 322.461H313.876" stroke="white" stroke-miterlimit="10" stroke-linecap="round" stroke-linejoin="round"/>
<path d="M359.136 83.2963V197.2C359.136 200.086 356.796 202.426 353.91 202.426H133.365C130.479 202.426 128.131 200.086 128.131 197.2V83.2963C128.131 80.4103 130.479 78.0703 133.365 78.0703H353.91C356.796 78.0703 359.136 80.4103 359.136 83.2963Z" fill="white"/>
<mask id="mask0_498_1546" style="mask-type:luminance" maskUnits="userSpaceOnUse" x="128" y="78" width="232" height="125">
<path d="M359.136 83.2963V197.2C359.136 200.086 356.796 202.426 353.91 202.426H133.365C130.479 202.426 128.131 200.086 128.131 197.2V83.2963C128.131 80.4103 130.479 78.0703 133.365 78.0703H353.91C356.796 78.0703 359.136 80.4103 359.136 83.2963Z" fill="white"/>
</mask>
<g mask="url(#mask0_498_1546)">
<path opacity="0.2" d="M359.136 89.3516V197.202C359.136 200.088 356.796 202.428 353.91 202.428H215.156V89.3516H359.136Z" fill="#92E3A9"/>
</g>
<path d="M359.136 83.2963V197.2C359.136 200.086 356.796 202.426 353.91 202.426H133.365C130.479 202.426 128.131 200.086 128.131 197.2V83.2963C128.131 80.4103 130.479 78.0703 133.365 78.0703H353.91C356.796 78.0703 359.136 80.4103 359.136 83.2963Z" stroke="#263238" stroke-miterlimit="10" stroke-linecap="round" stroke-linejoin="round"/>
<path d="M339.818 135.43H311.119C307.918 135.43 305.324 138.024 305.324 141.224C305.324 144.425 307.918 147.019 311.119 147.019H339.818C343.018 147.019 345.613 144.425 345.613 141.224C345.612 138.024 343.018 135.43 339.818 135.43Z" fill="#92E3A9" stroke="#263238" stroke-miterlimit="10" stroke-linecap="round" stroke-linejoin="round"/>
<path d="M359.136 83.2963V93.9667H128.131V83.2963C128.131 80.4103 130.479 78.0703 133.365 78.0703H353.91C356.796 78.0703 359.136 80.4103 359.136 83.2963Z" fill="#999999" stroke="#263238" stroke-miterlimit="10" stroke-linecap="round" stroke-linejoin="round"/>
<path d="M137.906 89.3478C139.894 89.3478 141.506 87.7362 141.506 85.7481C141.506 83.7601 139.894 82.1484 137.906 82.1484C135.918 82.1484 134.307 83.7601 134.307 85.7481C134.307 87.7362 135.918 89.3478 137.906 89.3478Z" fill="#92E3A9" stroke="#263238" stroke-miterlimit="10" stroke-linecap="round" stroke-linejoin="round"/>
<path d="M147.656 89.3478C149.644 89.3478 151.256 87.7362 151.256 85.7481C151.256 83.7601 149.644 82.1484 147.656 82.1484C145.668 82.1484 144.057 83.7601 144.057 85.7481C144.057 87.7362 145.668 89.3478 147.656 89.3478Z" fill="#757575" stroke="#263238" stroke-miterlimit="10" stroke-linecap="round" stroke-linejoin="round"/>
<path d="M157.406 89.3478C159.394 89.3478 161.006 87.7362 161.006 85.7481C161.006 83.7601 159.394 82.1484 157.406 82.1484C155.418 82.1484 153.807 83.7601 153.807 85.7481C153.807 87.7362 155.418 89.3478 157.406 89.3478Z" fill="white" stroke="#263238" stroke-miterlimit="10" stroke-linecap="round" stroke-linejoin="round"/>
<path d="M215.152 93.9688V202.529" stroke="#263238" stroke-miterlimit="10" stroke-linecap="round" stroke-linejoin="round"/>
<path d="M351.274 89.3478H300.772C298.783 89.3478 297.172 87.7364 297.172 85.7481C297.172 83.7599 298.783 82.1484 300.772 82.1484H351.274C353.262 82.1484 354.874 83.7599 354.874 85.7481C354.874 87.7364 353.262 89.3478 351.274 89.3478Z" fill="white" stroke="#263238" stroke-miterlimit="10" stroke-linecap="round" stroke-linejoin="round"/>
<path d="M342.064 127.409H232.771C230.811 127.409 229.223 125.82 229.223 123.861C229.223 121.901 230.812 120.312 232.771 120.312H342.064C344.024 120.312 345.612 121.901 345.612 123.861C345.612 125.82 344.024 127.409 342.064 127.409Z" fill="#BFBFBF" stroke="#263238" stroke-miterlimit="10"/>
<path d="M291.364 127.409H232.771C230.811 127.409 229.223 125.82 229.223 123.861C229.223 121.901 230.812 120.312 232.771 120.312H291.364C293.324 120.312 294.912 121.901 294.912 123.861C294.912 125.82 293.324 127.409 291.364 127.409Z" fill="#92E3A9" stroke="#263238" stroke-miterlimit="10" stroke-linecap="round" stroke-linejoin="round"/>
<path d="M237.265 177.812H232.449V182.628H237.265V177.812Z" stroke="#263238" stroke-miterlimit="10" stroke-linecap="round" stroke-linejoin="round"/>
<path d="M233.912 179.893L234.623 180.857L235.802 179.18" stroke="#263238" stroke-miterlimit="10" stroke-linecap="round" stroke-linejoin="round"/>
<path opacity="0.3" d="M279.001 181.616H246.224C245.45 181.616 244.822 180.988 244.822 180.214C244.822 179.44 245.45 178.812 246.224 178.812H279.001C279.775 178.812 280.403 179.44 280.403 180.214C280.403 180.988 279.776 181.616 279.001 181.616Z" fill="black"/>
<path d="M161.318 183.092H161.337L162.114 177.75H163.058L162.048 184.299H160.514L159.504 177.75H160.543L161.318 183.092Z" fill="#263238"/>
<path d="M164.566 180.503H165.979V181.438H164.566V183.356H166.344V184.291H163.537V177.742H166.344V178.677H164.566V180.503Z" fill="#263238"/>
<path d="M169.134 184.298C169.077 184.13 169.04 184.027 169.04 183.494V182.465C169.04 181.857 168.834 181.633 168.367 181.633H168.011V184.299H166.982V177.75H168.535C169.602 177.75 170.06 178.246 170.06 179.256V179.771C170.06 180.444 169.845 180.875 169.386 181.09V181.108C169.901 181.323 170.07 181.809 170.07 182.492V183.502C170.07 183.821 170.079 184.055 170.182 184.298H169.134ZM168.011 178.685V180.697H168.414C168.797 180.697 169.031 180.528 169.031 180.004V179.359C169.031 178.89 168.872 178.685 168.507 178.685H168.011Z" fill="#263238"/>
<path d="M171.736 183.305V184.296H170.744V183.305H171.736Z" fill="#263238"/>
<path d="M175.442 178.607C175.114 178.607 174.908 178.785 174.908 179.252V179.954H173.936V179.318C173.936 178.27 174.459 177.672 175.47 177.672C176.48 177.672 177.004 178.271 177.004 179.318C177.004 180.188 176.686 180.89 175.732 181.909C175.123 182.564 174.955 182.872 174.955 183.219C174.955 183.266 174.955 183.312 174.964 183.36H176.91V184.295H173.936V183.491C173.936 182.761 174.197 182.208 174.964 181.404C175.751 180.572 175.975 180.057 175.975 179.356C175.974 178.766 175.769 178.607 175.442 178.607Z" fill="#263238"/>
<path d="M178.634 183.305V184.296H177.643V183.305H178.634Z" fill="#263238"/>
<path d="M179.299 179.318C179.299 178.27 179.851 177.672 180.861 177.672C181.871 177.672 182.424 178.271 182.424 179.318V182.723C182.424 183.771 181.871 184.369 180.861 184.369C179.851 184.369 179.299 183.77 179.299 182.723V179.318ZM180.328 182.789C180.328 183.257 180.534 183.434 180.861 183.434C181.189 183.434 181.395 183.256 181.395 182.789V179.252C181.395 178.784 181.189 178.607 180.861 178.607C180.534 178.607 180.328 178.785 180.328 179.252V182.789Z" fill="#263238"/>
<path d="M184.016 182.176V182.785C184.016 183.253 184.222 183.421 184.549 183.421C184.877 183.421 185.083 183.253 185.083 182.785V181.343C185.083 180.875 184.877 180.698 184.549 180.698C184.222 180.698 184.016 180.876 184.016 181.343V181.54H183.043L183.23 177.742H185.943V178.677H184.147L184.062 180.24H184.081C184.268 179.932 184.559 179.763 184.97 179.763C185.728 179.763 186.111 180.297 186.111 181.26V182.719C186.111 183.767 185.588 184.365 184.577 184.365C183.567 184.365 183.043 183.766 183.043 182.719V182.176H184.016Z" fill="#263238"/>
<path d="M156.007 158.177C153.582 155.871 151.628 153.074 150.305 149.945" stroke="#263238" stroke-miterlimit="10" stroke-linecap="round" stroke-linejoin="round"/>
<path d="M178.473 116.5C186.424 118.342 192.893 124.05 195.796 131.536" stroke="#263238" stroke-miterlimit="10" stroke-linecap="round" stroke-linejoin="round"/>
<path d="M180.542 134.175V127.185L175.306 126.734C174.994 125.63 174.561 124.577 174.011 123.596L177.391 119.578L172.448 114.636L168.431 118.015C167.45 117.465 166.398 117.033 165.293 116.721L164.842 111.484H157.852L157.401 116.721C156.296 117.033 155.244 117.465 154.263 118.015L150.246 114.636L145.304 119.578L148.683 123.596C148.133 124.577 147.7 125.629 147.388 126.734L142.152 127.185V134.175L147.388 134.625C147.7 135.73 148.133 136.782 148.683 137.763L145.304 141.781L150.246 146.724L154.263 143.344C155.245 143.894 156.296 144.327 157.401 144.639L157.853 149.875H164.843L165.293 144.639C166.398 144.327 167.45 143.894 168.431 143.344L172.448 146.724L177.391 141.781L174.011 137.763C174.561 136.783 174.994 135.731 175.306 134.625L180.542 134.175ZM161.348 138.802C156.862 138.802 153.226 135.165 153.226 130.679C153.226 126.194 156.862 122.557 161.348 122.557C165.834 122.557 169.47 126.194 169.47 130.679C169.47 135.165 165.834 138.802 161.348 138.802Z" fill="#92E3A9" stroke="#263238" stroke-miterlimit="10" stroke-linecap="round" stroke-linejoin="round"/>
<path d="M203.671 149.778V144.804L199.945 144.483C199.723 143.696 199.415 142.948 199.023 142.25L201.429 139.392L197.912 135.875L195.053 138.28C194.355 137.888 193.606 137.58 192.821 137.359L192.5 133.633H187.525L187.204 137.359C186.418 137.581 185.669 137.888 184.972 138.28L182.113 135.875L178.596 139.392L181.001 142.25C180.609 142.948 180.301 143.697 180.08 144.483L176.354 144.805V149.779L180.08 150.1C180.302 150.886 180.609 151.635 181.001 152.333L178.596 155.191L182.113 158.708L184.972 156.304C185.67 156.695 186.419 157.003 187.204 157.225L187.525 160.951H192.5L192.821 157.225C193.607 157.002 194.356 156.695 195.054 156.304L197.913 158.708L201.43 155.191L199.024 152.333C199.416 151.634 199.724 150.886 199.945 150.1L203.671 149.778ZM190.012 153.07C186.82 153.07 184.232 150.482 184.232 147.291C184.232 144.099 186.82 141.511 190.012 141.511C193.204 141.511 195.792 144.099 195.792 147.291C195.792 150.482 193.204 153.07 190.012 153.07Z" fill="#92E3A9"/>
<mask id="mask1_498_1546" style="mask-type:luminance" maskUnits="userSpaceOnUse" x="176" y="133" width="28" height="28">
<path d="M203.671 149.778V144.804L199.945 144.483C199.723 143.696 199.415 142.948 199.023 142.25L201.429 139.392L197.912 135.875L195.053 138.28C194.355 137.888 193.606 137.58 192.821 137.359L192.5 133.633H187.525L187.204 137.359C186.418 137.581 185.669 137.888 184.972 138.28L182.113 135.875L178.596 139.392L181.001 142.25C180.609 142.948 180.301 143.697 180.08 144.483L176.354 144.805V149.779L180.08 150.1C180.302 150.886 180.609 151.635 181.001 152.333L178.596 155.191L182.113 158.708L184.972 156.304C185.67 156.695 186.419 157.003 187.204 157.225L187.525 160.951H192.5L192.821 157.225C193.607 157.002 194.356 156.695 195.054 156.304L197.913 158.708L201.43 155.191L199.024 152.333C199.416 151.634 199.724 150.886 199.945 150.1L203.671 149.778ZM190.012 153.07C186.82 153.07 184.232 150.482 184.232 147.291C184.232 144.099 186.82 141.511 190.012 141.511C193.204 141.511 195.792 144.099 195.792 147.291C195.792 150.482 193.204 153.07 190.012 153.07Z" fill="white"/>
</mask>
<g mask="url(#mask1_498_1546)">
<path opacity="0.3" d="M203.671 149.778V144.804L199.945 144.483C199.723 143.696 199.415 142.948 199.023 142.25L201.429 139.392L197.912 135.875L195.053 138.28C194.355 137.888 193.606 137.58 192.821 137.359L192.5 133.633H187.525L187.204 137.359C186.418 137.581 185.669 137.888 184.972 138.28L182.113 135.875L178.596 139.392L181.001 142.25C180.609 142.948 180.301 143.697 180.08 144.483L176.354 144.805V149.779L180.08 150.1C180.302 150.886 180.609 151.635 181.001 152.333L178.596 155.191L182.113 158.708L184.972 156.304C185.67 156.695 186.419 157.003 187.204 157.225L187.525 160.951H192.5L192.821 157.225C193.607 157.002 194.356 156.695 195.054 156.304L197.913 158.708L201.43 155.191L199.024 152.333C199.416 151.634 199.724 150.886 199.945 150.1L203.671 149.778ZM190.012 153.07C186.82 153.07 184.232 150.482 184.232 147.291C184.232 144.099 186.82 141.511 190.012 141.511C193.204 141.511 195.792 144.099 195.792 147.291C195.792 150.482 193.204 153.07 190.012 153.07Z" fill="white"/>
</g>
<path d="M203.671 149.778V144.804L199.945 144.483C199.723 143.696 199.415 142.948 199.023 142.25L201.429 139.392L197.912 135.875L195.053 138.28C194.355 137.888 193.606 137.58 192.821 137.359L192.5 133.633H187.525L187.204 137.359C186.418 137.581 185.669 137.888 184.972 138.28L182.113 135.875L178.596 139.392L181.001 142.25C180.609 142.948 180.301 143.697 180.08 144.483L176.354 144.805V149.779L180.08 150.1C180.302 150.886 180.609 151.635 181.001 152.333L178.596 155.191L182.113 158.708L184.972 156.304C185.67 156.695 186.419 157.003 187.204 157.225L187.525 160.951H192.5L192.821 157.225C193.607 157.002 194.356 156.695 195.054 156.304L197.913 158.708L201.43 155.191L199.024 152.333C199.416 151.634 199.724 150.886 199.945 150.1L203.671 149.778ZM190.012 153.07C186.82 153.07 184.232 150.482 184.232 147.291C184.232 144.099 186.82 141.511 190.012 141.511C193.204 141.511 195.792 144.099 195.792 147.291C195.792 150.482 193.204 153.07 190.012 153.07Z" stroke="#263238" stroke-miterlimit="10" stroke-linecap="round" stroke-linejoin="round"/>
<path d="M179.34 161.364V157.824L176.688 157.595C176.531 157.036 176.311 156.503 176.032 156.007L177.744 153.972L175.241 151.47L173.206 153.181C172.71 152.903 172.177 152.684 171.618 152.526L171.389 149.875H167.849L167.621 152.526C167.062 152.684 166.529 152.904 166.032 153.181L163.998 151.47L161.495 153.972L163.207 156.007C162.928 156.503 162.709 157.036 162.552 157.595L159.9 157.824V161.364L162.552 161.592C162.709 162.151 162.929 162.684 163.207 163.181L161.495 165.215L163.998 167.718L166.032 166.006C166.529 166.285 167.062 166.504 167.621 166.661L167.849 169.313H171.389L171.618 166.661C172.177 166.504 172.71 166.284 173.206 166.006L175.241 167.718L177.744 165.215L176.032 163.181C176.311 162.684 176.53 162.151 176.688 161.592L179.34 161.364ZM169.621 163.707C167.349 163.707 165.508 161.865 165.508 159.594C165.508 157.322 167.349 155.481 169.621 155.481C171.892 155.481 173.734 157.322 173.734 159.594C173.733 161.866 171.892 163.707 169.621 163.707Z" fill="#92E3A9"/>
<mask id="mask2_498_1546" style="mask-type:luminance" maskUnits="userSpaceOnUse" x="159" y="149" width="21" height="21">
<path d="M179.34 161.364V157.824L176.688 157.595C176.531 157.036 176.311 156.503 176.032 156.007L177.744 153.972L175.241 151.47L173.206 153.181C172.71 152.903 172.177 152.684 171.618 152.526L171.389 149.875H167.849L167.621 152.526C167.062 152.684 166.529 152.904 166.032 153.181L163.998 151.47L161.495 153.972L163.207 156.007C162.928 156.503 162.709 157.036 162.552 157.595L159.9 157.824V161.364L162.552 161.592C162.709 162.151 162.929 162.684 163.207 163.181L161.495 165.215L163.998 167.718L166.032 166.006C166.529 166.285 167.062 166.504 167.621 166.661L167.849 169.313H171.389L171.618 166.661C172.177 166.504 172.71 166.284 173.206 166.006L175.241 167.718L177.744 165.215L176.032 163.181C176.311 162.684 176.53 162.151 176.688 161.592L179.34 161.364ZM169.621 163.707C167.349 163.707 165.508 161.865 165.508 159.594C165.508 157.322 167.349 155.481 169.621 155.481C171.892 155.481 173.734 157.322 173.734 159.594C173.733 161.866 171.892 163.707 169.621 163.707Z" fill="white"/>
</mask>
<g mask="url(#mask2_498_1546)">
<path opacity="0.5" d="M179.34 161.364V157.824L176.688 157.595C176.531 157.036 176.311 156.503 176.032 156.007L177.744 153.972L175.241 151.47L173.206 153.181C172.71 152.903 172.177 152.684 171.618 152.526L171.389 149.875H167.849L167.621 152.526C167.062 152.684 166.529 152.904 166.032 153.181L163.998 151.47L161.495 153.972L163.207 156.007C162.928 156.503 162.709 157.036 162.552 157.595L159.9 157.824V161.364L162.552 161.592C162.709 162.151 162.929 162.684 163.207 163.181L161.495 165.215L163.998 167.718L166.032 166.006C166.529 166.285 167.062 166.504 167.621 166.661L167.849 169.313H171.389L171.618 166.661C172.177 166.504 172.71 166.284 173.206 166.006L175.241 167.718L177.744 165.215L176.032 163.181C176.311 162.684 176.53 162.151 176.688 161.592L179.34 161.364ZM169.621 163.707C167.349 163.707 165.508 161.865 165.508 159.594C165.508 157.322 167.349 155.481 169.621 155.481C171.892 155.481 173.734 157.322 173.734 159.594C173.733 161.866 171.892 163.707 169.621 163.707Z" fill="white"/>
</g>
<path d="M179.34 161.364V157.824L176.688 157.595C176.531 157.036 176.311 156.503 176.032 156.007L177.744 153.972L175.241 151.47L173.206 153.181C172.71 152.903 172.177 152.684 171.618 152.526L171.389 149.875H167.849L167.621 152.526C167.062 152.684 166.529 152.904 166.032 153.181L163.998 151.47L161.495 153.972L163.207 156.007C162.928 156.503 162.709 157.036 162.552 157.595L159.9 157.824V161.364L162.552 161.592C162.709 162.151 162.929 162.684 163.207 163.181L161.495 165.215L163.998 167.718L166.032 166.006C166.529 166.285 167.062 166.504 167.621 166.661L167.849 169.313H171.389L171.618 166.661C172.177 166.504 172.71 166.284 173.206 166.006L175.241 167.718L177.744 165.215L176.032 163.181C176.311 162.684 176.53 162.151 176.688 161.592L179.34 161.364ZM169.621 163.707C167.349 163.707 165.508 161.865 165.508 159.594C165.508 157.322 167.349 155.481 169.621 155.481C171.892 155.481 173.734 157.322 173.734 159.594C173.733 161.866 171.892 163.707 169.621 163.707Z" stroke="#263238" stroke-miterlimit="10" stroke-linecap="round" stroke-linejoin="round"/>
<path d="M193.916 130.685L195.797 131.535L196.538 129.836" stroke="#263238" stroke-miterlimit="10" stroke-linecap="round" stroke-linejoin="round"/>
<path d="M152.143 150.724L150.261 149.875L149.52 151.574" stroke="#263238" stroke-miterlimit="10" stroke-linecap="round" stroke-linejoin="round"/>
<path d="M230.251 111.531V115.362C230.251 115.716 230.406 115.844 230.655 115.844C230.903 115.844 231.06 115.716 231.06 115.362V111.531H231.797V115.313C231.797 116.108 231.4 116.561 230.634 116.561C229.868 116.561 229.471 116.108 229.471 115.313V111.531H230.251Z" fill="#263238"/>
<path d="M234.639 112.758V113.404C234.639 114.198 234.256 114.631 233.475 114.631H233.106V116.497H232.326V111.531H233.475C234.256 111.531 234.639 111.964 234.639 112.758ZM233.106 112.24V113.921H233.475C233.723 113.921 233.858 113.808 233.858 113.453V112.708C233.858 112.353 233.723 112.24 233.475 112.24H233.106Z" fill="#263238"/>
<path d="M237.434 116.497H236.646L236.511 115.596H235.553L235.418 116.497H234.703L235.497 111.531H236.639L237.434 116.497ZM235.654 114.922H236.406L236.036 112.411H236.022L235.654 114.922Z" fill="#263238"/>
<path d="M237.793 111.531H239.027C239.807 111.531 240.19 111.964 240.19 112.759V115.27C240.19 116.064 239.807 116.497 239.027 116.497H237.793V111.531ZM238.573 112.24V115.787H239.013C239.261 115.787 239.411 115.659 239.411 115.304V112.722C239.411 112.367 239.262 112.239 239.013 112.239L238.573 112.24Z" fill="#263238"/>
<path d="M243.204 116.497H242.416L242.281 115.596H241.324L241.189 116.497H240.473L241.267 111.531H242.409L243.204 116.497ZM241.424 114.922H242.176L241.806 112.411H241.792L241.424 114.922Z" fill="#263238"/>
<path d="M243.068 111.531H245.48V112.241H244.665V116.497H243.884V112.24H243.068V111.531Z" fill="#263238"/>
<path d="M245.818 111.531H246.599V116.497H245.818V111.531Z" fill="#263238"/>
<path d="M247.875 112.9H247.86V116.497H247.158V111.531H248.138L248.925 114.504H248.939V111.531H249.634V116.497H248.833L247.875 112.9Z" fill="#263238"/>
<path d="M251.363 113.732H252.455V115.306C252.455 116.101 252.058 116.555 251.292 116.555C250.526 116.555 250.129 116.101 250.129 115.306V112.725C250.129 111.931 250.526 111.477 251.292 111.477C252.059 111.477 252.455 111.931 252.455 112.725V113.207H251.718V112.675C251.718 112.32 251.562 112.186 251.314 112.186C251.066 112.186 250.909 112.321 250.909 112.675V115.356C250.909 115.711 251.065 115.839 251.314 115.839C251.562 115.839 251.718 115.712 251.718 115.356V114.441H251.363V113.732Z" fill="#263238"/>
<path d="M352.628 150.206L339.668 140.961L343.357 156.447L346.013 152.499L348.466 156.142L350.423 154.825L347.97 151.181L352.628 150.206Z" fill="#263238"/>
<path d="M198.128 219.677C199.728 217.425 210.26 223.694 208.964 228.149C207.668 232.604 203.455 232.122 200.987 229.757C198.517 227.391 196.413 222.089 198.128 219.677Z" fill="#92E3A9"/>
<mask id="mask3_498_1546" style="mask-type:luminance" maskUnits="userSpaceOnUse" x="197" y="219" width="13" height="13">
<path d="M198.128 219.677C199.728 217.425 210.26 223.694 208.964 228.149C207.668 232.604 203.455 232.122 200.987 229.757C198.517 227.391 196.413 222.089 198.128 219.677Z" fill="white"/>
</mask>
<g mask="url(#mask3_498_1546)">
<path opacity="0.3" d="M198.128 219.677C199.728 217.425 210.26 223.694 208.964 228.149C207.668 232.604 203.455 232.122 200.987 229.757C198.517 227.391 196.413 222.089 198.128 219.677Z" fill="black" fill-opacity="0.7"/>
</g>
<path d="M198.128 219.677C199.728 217.425 210.26 223.694 208.964 228.149C207.668 232.604 203.455 232.122 200.987 229.757C198.517 227.391 196.413 222.089 198.128 219.677Z" stroke="#263238" stroke-miterlimit="10" stroke-linecap="round" stroke-linejoin="round"/>
<path d="M203.122 202.383C203.122 202.383 204.648 202.383 207.27 208.4C209.098 212.595 208.078 216.702 208.078 216.702L204.278 235.002L194.971 229.448L200.342 216.012C200.342 216.012 197.56 207.333 203.122 202.383Z" fill="white" stroke="#263238" stroke-miterlimit="10" stroke-linecap="round" stroke-linejoin="round"/>
<path d="M199.376 214.167L193.444 216.135C192.817 216.296 191.578 215.248 191.633 214.603L193.392 193.869C193.463 193.032 194.056 192.331 194.87 192.121L201.442 190.694C202.069 190.533 203.648 191.283 203.593 191.928L200.853 212.419C200.783 213.256 200.19 213.957 199.376 214.167Z" fill="#92E3A9"/>
<mask id="mask4_498_1546" style="mask-type:luminance" maskUnits="userSpaceOnUse" x="191" y="190" width="13" height="27">
<path d="M199.376 214.167L193.444 216.135C192.817 216.296 191.578 215.248 191.633 214.603L193.392 193.869C193.463 193.032 194.056 192.331 194.87 192.121L201.442 190.694C202.069 190.533 203.648 191.283 203.593 191.928L200.853 212.419C200.783 213.256 200.19 213.957 199.376 214.167Z" fill="white"/>
</mask>
<g mask="url(#mask4_498_1546)">
<path opacity="0.3" d="M199.376 214.167L193.444 216.135C192.817 216.296 191.578 215.248 191.633 214.603L193.392 193.869C193.463 193.032 194.056 192.331 194.87 192.121L201.442 190.694C202.069 190.533 203.648 191.283 203.593 191.928L200.853 212.419C200.783 213.256 200.19 213.957 199.376 214.167Z" fill="black" fill-opacity="0.7"/>
</g>
<path d="M199.376 214.167L193.444 216.135C192.817 216.296 191.578 215.248 191.633 214.603L193.392 193.869C193.463 193.032 194.056 192.331 194.87 192.121L201.442 190.694C202.069 190.533 203.648 191.283 203.593 191.928L200.853 212.419C200.783 213.256 200.19 213.957 199.376 214.167Z" stroke="#263238" stroke-miterlimit="10" stroke-linecap="round" stroke-linejoin="round"/>
<path d="M200.352 214.674L193.78 216.101C193.153 216.263 192.554 215.757 192.609 215.111L194.369 194.377C194.44 193.54 195.033 192.839 195.847 192.63L202.419 191.202C203.046 191.041 203.645 191.547 203.59 192.192L201.83 212.927C201.758 213.764 201.166 214.464 200.352 214.674Z" fill="#92E3A9" stroke="#263238" stroke-miterlimit="10" stroke-linecap="round" stroke-linejoin="round"/>
<path opacity="0.3" d="M196.708 198.22L195.648 198.45C195.547 198.476 195.451 198.395 195.46 198.29L195.743 194.946C195.755 194.811 195.85 194.698 195.981 194.665L197.041 194.434C197.143 194.409 197.239 194.49 197.23 194.594L196.946 197.938C196.935 198.073 196.839 198.186 196.708 198.22Z" fill="black" fill-opacity="0.7"/>
<path d="M205.952 208.614C206.207 205.707 203.561 201.344 201.802 201.344C200.043 201.344 194.682 205.471 194.682 205.471C192.608 206.974 193.635 208.405 193.635 208.405C192.415 209.212 192.081 210.302 192.638 210.808C193.262 211.374 194.97 210.808 194.97 210.808C194.97 210.808 193.192 212.108 193.634 212.746C194.681 214.254 198.126 212.264 198.126 212.264C198.126 212.264 196.127 213.583 196.242 213.832C196.996 215.479 200.261 213.559 200.261 213.559L202.555 214.735C202.555 214.735 202.53 216.678 204.646 216.707" fill="white"/>
<path d="M205.952 208.614C206.207 205.707 203.561 201.344 201.802 201.344C200.043 201.344 194.682 205.471 194.682 205.471C192.608 206.974 193.635 208.405 193.635 208.405C192.415 209.212 192.081 210.302 192.638 210.808C193.262 211.374 194.97 210.808 194.97 210.808C194.97 210.808 193.192 212.108 193.634 212.746C194.681 214.254 198.126 212.264 198.126 212.264C198.126 212.264 196.127 213.583 196.242 213.832C196.996 215.479 200.261 213.559 200.261 213.559L202.555 214.735C202.555 214.735 202.53 216.678 204.646 216.707" stroke="#263238" stroke-miterlimit="10" stroke-linecap="round" stroke-linejoin="round"/>
<path d="M193.635 208.406C193.635 208.406 198.652 205.165 199.284 205.076C199.917 204.989 202.241 204.484 202.241 204.484" fill="white"/>
<path d="M193.635 208.406C193.635 208.406 198.652 205.165 199.284 205.076C199.917 204.989 202.241 204.484 202.241 204.484" stroke="#263238" stroke-miterlimit="10" stroke-linecap="round" stroke-linejoin="round"/>
<path d="M194.971 210.804C194.971 210.804 199.046 208.7 199.792 208.7C200.575 208.7 203.122 208.125 203.122 208.125" fill="white"/>
<path d="M194.971 210.804C194.971 210.804 199.046 208.7 199.792 208.7C200.575 208.7 203.122 208.125 203.122 208.125" stroke="#263238" stroke-miterlimit="10" stroke-linecap="round" stroke-linejoin="round"/>
<path d="M198.127 212.262C198.127 212.262 199.21 211.51 199.635 211.373C200.059 211.237 202.556 211.373 202.556 211.373" fill="white"/>
<path d="M198.127 212.262C198.127 212.262 199.21 211.51 199.635 211.373C200.059 211.237 202.556 211.373 202.556 211.373" stroke="#263238" stroke-miterlimit="10" stroke-linecap="round" stroke-linejoin="round"/>
<path d="M157.992 212.156C165.809 212.274 183.706 240.217 183.706 240.217L194.971 226.187L198.128 219.68C198.128 219.68 199.661 231.379 208.964 228.152C208.964 228.152 200.791 258.869 191.632 262.572C182.472 266.274 157.041 240.217 157.041 240.217L157.992 212.156Z" fill="#92E3A9"/>
<mask id="mask5_498_1546" style="mask-type:luminance" maskUnits="userSpaceOnUse" x="157" y="212" width="52" height="51">
<path d="M157.992 212.156C165.809 212.274 183.706 240.217 183.706 240.217L194.971 226.187L198.128 219.68C198.128 219.68 199.661 231.379 208.964 228.152C208.964 228.152 200.791 258.869 191.632 262.572C182.472 266.274 157.041 240.217 157.041 240.217L157.992 212.156Z" fill="white"/>
</mask>
<g mask="url(#mask5_498_1546)">
<path opacity="0.2" d="M158.627 241.798C161.848 244.957 169.477 252.18 176.91 257.304C174.726 249.996 168.744 242.211 168.744 242.211C166.887 241.595 164.266 236.034 164.266 236.034C163.034 236.502 161.287 232.641 161.287 232.641C159.852 233.865 159.048 237.461 158.627 241.798Z" fill="black" fill-opacity="0.7"/>
</g>
<mask id="mask6_498_1546" style="mask-type:luminance" maskUnits="userSpaceOnUse" x="157" y="212" width="52" height="51">
<path d="M157.992 212.156C165.809 212.274 183.706 240.217 183.706 240.217L194.971 226.187L198.128 219.68C198.128 219.68 199.661 231.379 208.964 228.152C208.964 228.152 200.791 258.869 191.632 262.572C182.472 266.274 157.041 240.217 157.041 240.217L157.992 212.156Z" fill="white"/>
</mask>
<g mask="url(#mask6_498_1546)">
<path opacity="0.2" d="M183.189 247.379C183.189 247.379 182.627 243.869 183.836 240.047L183.703 240.219C183.703 240.219 182.487 238.324 180.552 235.516C180.045 239.158 179.788 245.227 183.189 247.379Z" fill="black" fill-opacity="0.7"/>
</g>
<path d="M157.992 212.156C165.809 212.274 183.706 240.217 183.706 240.217L194.971 226.187L198.128 219.68C198.128 219.68 199.661 231.379 208.964 228.152C208.964 228.152 200.791 258.869 191.632 262.572C182.472 266.274 157.041 240.217 157.041 240.217L157.992 212.156Z" stroke="#263238" stroke-miterlimit="10" stroke-linecap="round" stroke-linejoin="round"/>
<path d="M77.1464 332.481C77.1464 332.481 72.209 342.394 72.209 344.757C72.209 347.121 71.3861 348.145 67.0664 348.145C62.7468 348.145 52.0491 348.242 50.4033 347.475C50.4033 347.475 41.8405 347.475 40.4006 347.475C38.0278 347.475 37.109 345.231 38.5489 345.537C39.9887 345.843 50.6006 342.905 53.4804 341.722C56.3602 340.538 61.115 339.131 63.6719 336.658C66.2287 334.184 69.3292 324.961 69.3292 324.961L77.1464 332.481Z" fill="white" stroke="#263238" stroke-miterlimit="10" stroke-linecap="round" stroke-linejoin="round"/>
<path d="M50.4023 347.475C50.4023 344.574 53.488 345.963 58.2195 344.757C61.2381 343.987 61.5524 342.922 61.5524 342.922" stroke="#263238" stroke-miterlimit="10" stroke-linecap="round" stroke-linejoin="round"/>
<path d="M161.162 230.083C161.474 235.758 161.608 241.652 161.838 246.052C162.392 256.688 169.512 287.761 169.512 287.761C169.512 287.761 177.289 292.433 177.701 301C178.112 309.567 130.426 333.749 117.63 326.859C104.835 319.969 106.563 299.939 106.563 299.939C106.563 299.939 87.6371 223.486 95.3872 217.348C103.137 211.209 105.74 211.966 125.575 209.225C145.409 206.484 157.992 212.156 157.992 212.156C157.992 212.156 159.792 213.782 160.254 216.153" fill="#92E3A9"/>
<mask id="mask7_498_1546" style="mask-type:luminance" maskUnits="userSpaceOnUse" x="93" y="208" width="85" height="121">
<path d="M161.162 230.083C161.474 235.758 161.608 241.652 161.838 246.052C162.392 256.688 169.512 287.761 169.512 287.761C169.512 287.761 177.289 292.433 177.701 301C178.112 309.567 130.426 333.749 117.63 326.859C104.835 319.969 106.563 299.939 106.563 299.939C106.563 299.939 87.6371 223.486 95.3872 217.348C103.137 211.209 105.74 211.966 125.575 209.225C145.409 206.484 157.992 212.156 157.992 212.156C157.992 212.156 159.792 213.782 160.254 216.153" fill="white"/>
</mask>
<g mask="url(#mask7_498_1546)">
<path opacity="0.2" d="M106.562 299.937C106.562 299.937 104.838 319.968 117.63 326.863C130.43 333.75 178.111 309.57 177.698 300.998C177.292 292.434 169.515 287.761 169.515 287.761C169.515 287.761 168.813 284.68 167.823 280.133C161.06 284.517 145.647 293.611 135.617 292.597C135.617 292.597 152.316 298.518 162.995 293.432C173.681 288.339 158.556 300.124 155.475 299.937C152.387 299.758 129.4 295.593 125.235 297.753C121.07 299.906 111.811 315.802 111.811 315.802C111.811 315.802 106.195 303.182 107.443 295.437C107.443 295.437 107.607 271.319 104.924 257.224C104.924 257.224 111.343 246.148 104.245 237.545C101.624 234.37 98.7615 240.907 96.1953 250.415C100.01 273.456 106.562 299.937 106.562 299.937Z" fill="black" fill-opacity="0.7"/>
</g>
<path d="M161.162 230.083C161.474 235.758 161.608 241.652 161.838 246.052C162.392 256.688 169.512 287.761 169.512 287.761C169.512 287.761 177.289 292.433 177.701 301C178.112 309.567 130.426 333.749 117.63 326.859C104.835 319.969 106.563 299.939 106.563 299.939C106.563 299.939 87.6371 223.486 95.3872 217.348C103.137 211.209 105.74 211.966 125.575 209.225C145.409 206.484 157.992 212.156 157.992 212.156C157.992 212.156 159.792 213.782 160.254 216.153" stroke="#263238" stroke-miterlimit="10" stroke-linecap="round" stroke-linejoin="round"/>
<path d="M170.746 295.075C171.947 294.924 175.2 296.981 175.2 296.981C175.2 296.981 227.802 283.476 235.718 287.762C251.592 296.361 243.124 313.321 239.832 318.186C236.541 323.052 187.993 346.046 171.124 346.481C154.255 346.915 123.352 342.259 117.262 332.334C111.173 322.408 117.407 311.391 125.871 303.304C134.483 295.076 151.277 302.275 157.041 300.629C164.475 298.506 167.079 295.537 170.746 295.075Z" fill="#263238"/>
<path d="M126.746 341.289L125.969 344.681C125.969 344.681 128.037 350.555 137.137 351.513C146.236 352.47 151.621 354.487 155.993 354.75C160.364 355.012 162.91 354.64 162.91 354.64L163.803 353.304L126.746 341.289Z" fill="white" stroke="#263238" stroke-miterlimit="10" stroke-linecap="round" stroke-linejoin="round"/>
<path d="M179.567 340.93L163.806 353.301C163.806 353.301 151.586 352.333 141.205 349.923L141.205 349.915C133.735 348.187 127.214 345.706 126.856 342.308C126.31 337.143 131.831 335.728 138.394 335.929C139.62 335.956 140.878 336.051 142.147 336.184C152.65 337.31 165.998 331.508 165.998 331.508L179.567 340.93Z" fill="#92E3A9"/>
<mask id="mask8_498_1546" style="mask-type:luminance" maskUnits="userSpaceOnUse" x="126" y="331" width="54" height="23">
<path d="M179.567 340.93L163.806 353.301C163.806 353.301 151.586 352.333 141.205 349.923L141.205 349.915C133.735 348.187 127.214 345.706 126.856 342.308C126.31 337.143 131.831 335.728 138.394 335.929C139.62 335.956 140.878 336.051 142.147 336.184C152.65 337.31 165.998 331.508 165.998 331.508L179.567 340.93Z" fill="white"/>
</mask>
<g mask="url(#mask8_498_1546)">
<path opacity="0.2" d="M126.85 342.194C129.682 343.309 133.2 344.861 135.618 346.507C135.618 346.507 150.258 354.042 172.753 346.281L179.571 340.93L165.999 331.508C165.999 331.508 152.653 337.311 142.146 336.18C140.875 336.047 139.619 335.954 138.394 335.93C131.881 335.728 126.398 337.116 126.85 342.194Z" fill="black" fill-opacity="0.7"/>
</g>
<path d="M179.567 340.93L163.806 353.301C163.806 353.301 151.586 352.333 141.205 349.923L141.205 349.915C133.735 348.187 127.214 345.706 126.856 342.308C126.31 337.143 131.831 335.728 138.394 335.929C139.62 335.956 140.878 336.051 142.147 336.184C152.65 337.31 165.998 331.508 165.998 331.508L179.567 340.93Z" stroke="#263238" stroke-miterlimit="10" stroke-linecap="round" stroke-linejoin="round"/>
<path d="M164.873 345.803C167.715 346.266 164.592 352.078 160.741 350.313C156.889 348.548 162.031 345.34 164.873 345.803Z" fill="white"/>
<mask id="mask9_498_1546" style="mask-type:luminance" maskUnits="userSpaceOnUse" x="159" y="345" width="7" height="6">
<path d="M164.873 345.803C167.715 346.266 164.592 352.078 160.741 350.313C156.889 348.548 162.031 345.34 164.873 345.803Z" fill="white"/>
</mask>
<g mask="url(#mask9_498_1546)">
<path opacity="0.2" d="M159.538 349.376C161.481 349.142 163.524 348.791 165.661 348.307C166.207 347.168 166.083 345.998 164.874 345.803C162.487 345.413 158.478 347.613 159.538 349.376Z" fill="black" fill-opacity="0.7"/>
</g>
<path d="M164.873 345.803C167.715 346.266 164.592 352.078 160.741 350.313C156.889 348.548 162.031 345.34 164.873 345.803Z" stroke="#263238" stroke-miterlimit="10" stroke-linecap="round" stroke-linejoin="round"/>
<path d="M141.205 349.919C133.735 348.19 127.214 345.71 126.856 342.312C126.31 337.146 131.831 335.731 138.394 335.932C138.682 336.208 145.042 342.36 141.205 349.919Z" fill="white"/>
<mask id="mask10_498_1546" style="mask-type:luminance" maskUnits="userSpaceOnUse" x="126" y="335" width="17" height="15">
<path d="M141.205 349.919C133.735 348.19 127.214 345.71 126.856 342.312C126.31 337.146 131.831 335.731 138.394 335.932C138.682 336.208 145.042 342.36 141.205 349.919Z" fill="white"/>
</mask>
<g mask="url(#mask10_498_1546)">
<path opacity="0.2" d="M126.85 342.196C129.682 343.312 133.2 344.864 135.618 346.51C135.618 346.51 137.802 347.633 141.78 348.569C144.299 341.643 138.667 336.19 138.394 335.933C131.881 335.73 126.398 337.119 126.85 342.196Z" fill="black" fill-opacity="0.7"/>
</g>
<path d="M141.205 349.919C133.735 348.19 127.214 345.71 126.856 342.312C126.31 337.146 131.831 335.731 138.394 335.932C138.682 336.208 145.042 342.36 141.205 349.919Z" stroke="#263238" stroke-miterlimit="10" stroke-linecap="round" stroke-linejoin="round"/>
<path d="M146.531 343.496C146.516 343.498 146.5 343.498 146.486 343.499C146.056 343.52 145.69 343.188 145.669 342.758C145.513 339.504 143.008 336.854 142.982 336.827C142.685 336.516 142.695 336.023 143.005 335.725C143.315 335.427 143.808 335.437 144.106 335.746C144.226 335.871 147.041 338.833 147.226 342.683C147.247 343.098 146.938 343.452 146.531 343.496Z" fill="white" stroke="#263238" stroke-miterlimit="10" stroke-linecap="round" stroke-linejoin="round"/>
<path d="M149.654 343.685C149.633 343.688 149.61 343.689 149.587 343.689C149.156 343.698 148.8 343.355 148.792 342.926C148.726 339.638 146.428 336.787 146.404 336.758C146.133 336.425 146.181 335.934 146.513 335.662C146.847 335.389 147.335 335.436 147.61 335.769C147.719 335.901 150.275 339.055 150.351 342.894C150.36 343.302 150.053 343.643 149.654 343.685Z" fill="white" stroke="#263238" stroke-miterlimit="10" stroke-linecap="round" stroke-linejoin="round"/>
<path d="M153.388 343.295C153.384 343.296 153.379 343.296 153.375 343.297C152.946 343.334 152.567 343.017 152.529 342.588C152.29 339.854 149.965 336.359 149.941 336.324C149.701 335.966 149.796 335.483 150.154 335.242C150.511 335.001 150.997 335.098 151.236 335.455C151.341 335.611 153.809 339.316 154.084 342.451C154.121 342.876 153.81 343.251 153.388 343.295Z" fill="white" stroke="#263238" stroke-miterlimit="10" stroke-linecap="round" stroke-linejoin="round"/>
<path d="M156.917 342.917C156.848 342.924 156.777 342.923 156.706 342.911C156.28 342.839 155.994 342.438 156.064 342.013C156.619 338.7 153.541 335.863 153.51 335.834C153.192 335.546 153.167 335.053 153.454 334.734C153.742 334.415 154.235 334.389 154.555 334.677C154.709 334.816 158.3 338.107 157.603 342.271C157.544 342.624 157.256 342.882 156.917 342.917Z" fill="white" stroke="#263238" stroke-miterlimit="10" stroke-linecap="round" stroke-linejoin="round"/>
<path d="M160.747 342C160.663 342.009 160.577 342.004 160.49 341.984C160.071 341.888 159.808 341.47 159.905 341.05C160.584 338.097 157.672 334.759 157.642 334.726C157.358 334.404 157.388 333.911 157.71 333.626C158.032 333.34 158.525 333.37 158.81 333.691C158.953 333.852 162.285 337.659 161.425 341.4C161.348 341.732 161.069 341.966 160.747 342Z" fill="white" stroke="#263238" stroke-miterlimit="10" stroke-linecap="round" stroke-linejoin="round"/>
<path d="M241.823 336.211L242.952 339.503C242.952 339.503 241.513 345.561 232.564 347.469C223.615 349.377 218.472 351.948 214.153 352.668C209.832 353.388 207.261 353.285 207.261 353.285L206.232 352.05L241.823 336.211Z" fill="white" stroke="#263238" stroke-miterlimit="10" stroke-linecap="round" stroke-linejoin="round"/>
<path d="M189.258 341.405L206.231 352.052C206.231 352.052 218.282 349.805 228.351 346.319V346.311C235.598 343.807 241.822 340.656 241.822 337.239C241.822 332.045 236.183 331.218 229.677 332.107C228.461 332.263 227.22 332.489 225.972 332.754C215.645 334.977 201.761 330.609 201.761 330.609L189.258 341.405Z" fill="#92E3A9"/>
<mask id="mask11_498_1546" style="mask-type:luminance" maskUnits="userSpaceOnUse" x="189" y="330" width="53" height="23">
<path d="M189.258 341.405L206.231 352.052C206.231 352.052 218.282 349.805 228.351 346.319V346.311C235.598 343.807 241.822 340.656 241.822 337.239C241.822 332.045 236.183 331.218 229.677 332.107C228.461 332.263 227.22 332.489 225.972 332.754C215.645 334.977 201.761 330.609 201.761 330.609L189.258 341.405Z" fill="white"/>
</mask>
<g mask="url(#mask11_498_1546)">
<path opacity="0.2" d="M189.258 341.405L199.242 347.668C209.265 344.649 215.786 338.261 219.514 333.386C210.661 333.41 201.761 330.609 201.761 330.609L189.258 341.405Z" fill="black" fill-opacity="0.7"/>
</g>
<path d="M189.258 341.405L206.231 352.052C206.231 352.052 218.282 349.805 228.351 346.319V346.311C235.598 343.807 241.822 340.656 241.822 337.239C241.822 332.045 236.183 331.218 229.677 332.107C228.461 332.263 227.22 332.489 225.972 332.754C215.645 334.977 201.761 330.609 201.761 330.609L189.258 341.405Z" stroke="#263238" stroke-miterlimit="10" stroke-linecap="round" stroke-linejoin="round"/>
<path d="M228.351 346.31C235.597 343.806 241.821 340.655 241.821 337.239C241.821 332.044 236.182 331.217 229.677 332.106C229.419 332.411 223.741 339.197 228.351 346.31Z" fill="white" stroke="#263238" stroke-miterlimit="10" stroke-linecap="round" stroke-linejoin="round"/>
<path d="M222.381 340.489C222.397 340.489 222.412 340.488 222.427 340.487C222.857 340.463 223.186 340.094 223.16 339.664C222.975 336.412 225.187 333.513 225.21 333.484C225.472 333.144 225.411 332.653 225.071 332.39C224.731 332.127 224.242 332.188 223.978 332.527C223.872 332.663 221.384 335.905 221.604 339.753C221.627 340.168 221.971 340.489 222.381 340.489Z" fill="white" stroke="#263238" stroke-miterlimit="10" stroke-linecap="round" stroke-linejoin="round"/>
<path d="M219.296 341.001C219.317 341.001 219.341 341 219.363 340.998C219.793 340.961 220.111 340.584 220.073 340.155C219.793 336.879 221.78 333.802 221.8 333.771C222.036 333.411 221.936 332.927 221.576 332.691C221.215 332.455 220.735 332.553 220.497 332.913C220.402 333.056 218.191 336.462 218.52 340.287C218.554 340.695 218.895 341.001 219.296 341.001Z" fill="white" stroke="#263238" stroke-miterlimit="10" stroke-linecap="round" stroke-linejoin="round"/>
<path d="M215.54 341.002C215.544 341.002 215.549 341.002 215.554 341.002C215.984 340.994 216.327 340.638 216.32 340.208C216.271 337.464 218.217 333.745 218.236 333.707C218.437 333.327 218.291 332.855 217.91 332.654C217.53 332.451 217.057 332.599 216.856 332.978C216.768 333.145 214.704 337.088 214.759 340.235C214.767 340.662 215.115 341.002 215.54 341.002Z" fill="white" stroke="#263238" stroke-miterlimit="10" stroke-linecap="round" stroke-linejoin="round"/>
<path d="M211.992 341.006C212.062 341.006 212.132 340.996 212.202 340.978C212.617 340.862 212.86 340.433 212.745 340.018C211.846 336.781 214.608 333.636 214.637 333.604C214.923 333.284 214.895 332.791 214.576 332.504C214.256 332.217 213.763 332.243 213.475 332.562C213.337 332.716 210.111 336.367 211.242 340.435C211.338 340.78 211.651 341.006 211.992 341.006Z" fill="white" stroke="#263238" stroke-miterlimit="10" stroke-linecap="round" stroke-linejoin="round"/>
<path d="M208.085 340.489C208.169 340.489 208.255 340.475 208.339 340.446C208.747 340.306 208.963 339.863 208.822 339.455C207.837 336.589 210.382 332.964 210.408 332.928C210.657 332.577 210.576 332.091 210.226 331.84C209.876 331.591 209.389 331.671 209.138 332.021C209.014 332.196 206.099 336.332 207.347 339.962C207.459 340.286 207.762 340.489 208.085 340.489Z" fill="white" stroke="#263238" stroke-miterlimit="10" stroke-linecap="round" stroke-linejoin="round"/>
<path d="M204.381 344.711C201.604 345.471 205.319 350.922 208.964 348.762C212.609 346.602 207.157 343.951 204.381 344.711Z" fill="white" stroke="#263238" stroke-miterlimit="10" stroke-linecap="round" stroke-linejoin="round"/>
<path d="M130.221 299.189C140.506 297.388 167.809 311.754 184.541 321.327C186.761 320.028 188.477 318.93 189.261 318.231C193.114 314.798 207.817 295.898 217.958 291.578L236.472 315.801C232.3 321.642 219.95 328.091 207.642 333.414C206.318 335.602 203.625 339.692 199.924 343.499C192.347 351.292 189.258 346.926 189.258 346.926C189.258 346.926 184.474 346.39 177.405 345.421C176.936 346.327 175.862 347.75 173.833 347.429C172.913 347.284 171.144 345.97 169.148 344.235C151.309 341.55 127.092 337.071 120.553 331.803C109.856 323.185 121.145 300.78 130.221 299.189Z" fill="#263238"/>
<path d="M102.666 230.083C104.595 236.326 104.756 245.261 103.169 252.232C103.169 252.232 96.2455 282.87 95.3875 289.538C94.5295 296.206 82.8037 322.13 82.1859 330.614L76.7993 338.37C76.7993 338.37 68.9174 337.775 63.6719 331.802L67.3745 323.589C67.3745 323.589 70.7691 310.957 72.0031 309.202C73.237 307.448 77.2883 283.625 78.6572 279.732C80.0261 275.84 88.2224 223.964 95.3875 217.348C95.3875 217.348 97.2953 217.197 98.0777 218.697" fill="#92E3A9"/>
<path d="M102.666 230.083C104.595 236.326 104.756 245.261 103.169 252.232C103.169 252.232 96.2455 282.87 95.3875 289.538C94.5295 296.206 82.8037 322.13 82.1859 330.614L76.7993 338.37C76.7993 338.37 68.9174 337.775 63.6719 331.802L67.3745 323.589C67.3745 323.589 70.7691 310.957 72.0031 309.202C73.237 307.448 77.2883 283.625 78.6572 279.732C80.0261 275.84 88.2224 223.964 95.3875 217.348C95.3875 217.348 97.2953 217.197 98.0777 218.697" stroke="#263238" stroke-miterlimit="10" stroke-linecap="round" stroke-linejoin="round"/>
<path d="M206.794 328.735C203.145 327.216 197.899 328.735 197.899 328.735C197.899 328.735 180.685 321.238 168.894 314.102C157.102 306.965 140.197 301.604 140.197 301.604C133.716 301.142 130.631 301.296 127.545 304.69" stroke="white" stroke-miterlimit="10" stroke-linecap="round" stroke-linejoin="round"/>
<path d="M119.678 324.961C119.678 324.961 119.591 330.188 127.002 333.808" stroke="white" stroke-miterlimit="10" stroke-linecap="round" stroke-linejoin="round"/>
<path d="M201.45 303.148C201.45 303.148 189.743 311.609 187.41 317.188C187.41 317.188 182.909 319.103 180.762 320.614" stroke="white" stroke-miterlimit="10" stroke-linecap="round" stroke-linejoin="round"/>
<path d="M186.558 310.18C185.772 312.61 185.477 315.252 186.147 317.746" stroke="white" stroke-miterlimit="10" stroke-linecap="round" stroke-linejoin="round"/>
<path d="M189.257 304.688C188.616 305.611 188.065 306.598 187.582 307.613" stroke="white" stroke-miterlimit="10" stroke-linecap="round" stroke-linejoin="round"/>
<path d="M172.598 303.922C172.598 303.922 168.684 309.153 167.709 313.403" stroke="white" stroke-miterlimit="10" stroke-linecap="round" stroke-linejoin="round"/>
<path d="M150.797 335.551C149.341 335.457 147.887 335.296 146.455 335.016" stroke="white" stroke-miterlimit="10" stroke-linecap="round" stroke-linejoin="round"/>
<path d="M187.514 331.797C176.831 333.838 165.131 335.398 153.865 335.66" stroke="white" stroke-miterlimit="10" stroke-linecap="round" stroke-linejoin="round"/>
<path d="M183.706 240.211C183.706 240.211 181.392 244.205 183.706 248.526" stroke="#263238" stroke-miterlimit="10" stroke-linecap="round" stroke-linejoin="round"/>
<path d="M121.881 216.867C127.264 220.207 134.815 223.031 140.465 218.69" stroke="#263238" stroke-miterlimit="10" stroke-linecap="round" stroke-linejoin="round"/>
<path d="M117.631 213.812C118.362 214.433 119.129 215.011 119.912 215.564" stroke="#263238" stroke-miterlimit="10" stroke-linecap="round" stroke-linejoin="round"/>
<path d="M163.923 234.625C163.602 237.598 163.329 241.134 161.73 243.742" stroke="#263238" stroke-miterlimit="10" stroke-linecap="round" stroke-linejoin="round"/>
<path d="M164.267 230.32C164.228 231.131 164.171 231.94 164.104 232.749" stroke="#263238" stroke-miterlimit="10" stroke-linecap="round" stroke-linejoin="round"/>
<path d="M167.171 243.742C167.171 243.742 165.305 245.719 161.777 244.809" stroke="#263238" stroke-miterlimit="10" stroke-linecap="round" stroke-linejoin="round"/>
<path d="M107.183 236.031C107.183 236.031 106.948 248.835 102.668 254.467" stroke="#263238" stroke-miterlimit="10" stroke-linecap="round" stroke-linejoin="round"/>
<path d="M131.558 291.674C130.543 291.438 129.528 291.199 128.516 290.953" stroke="#263238" stroke-miterlimit="10" stroke-linecap="round" stroke-linejoin="round"/>
<path d="M169.512 287.758C165.132 287.819 161.232 290.939 157.332 294.059C149.532 298.739 141.732 292.499 133.623 292.15" stroke="#263238" stroke-miterlimit="10" stroke-linecap="round" stroke-linejoin="round"/>
<path d="M109.026 285.297C108.351 290.197 107.602 295.098 106.564 299.937" stroke="#263238" stroke-miterlimit="10" stroke-linecap="round" stroke-linejoin="round"/>
<path d="M109.804 279.227C109.666 280.411 109.517 281.593 109.363 282.775" stroke="#263238" stroke-miterlimit="10" stroke-linecap="round" stroke-linejoin="round"/>
<path d="M152.58 262.164C147.66 270.528 140.597 280.064 130.633 282.472" stroke="#263238" stroke-miterlimit="10" stroke-linecap="round" stroke-linejoin="round"/>
<path d="M157.941 251.461C156.746 254.416 155.312 257.285 153.771 260.074" stroke="#263238" stroke-miterlimit="10" stroke-linecap="round" stroke-linejoin="round"/>
<path d="M94.1346 246.695C90.3952 255.867 86.6076 266.766 79.873 274.227" stroke="#263238" stroke-miterlimit="10" stroke-linecap="round" stroke-linejoin="round"/>
<path d="M96.6896 240.211C96.1733 241.581 95.639 242.945 95.0977 244.305" stroke="#263238" stroke-miterlimit="10" stroke-linecap="round" stroke-linejoin="round"/>
<path d="M84.6555 301.414C84.6555 301.414 75.7073 308.775 72.0039 309.201" stroke="#263238" stroke-miterlimit="10" stroke-linecap="round" stroke-linejoin="round"/>
<path d="M69.599 332.648C67.9087 331.722 65.9119 330.547 65.0547 328.734" stroke="#263238" stroke-miterlimit="10" stroke-linecap="round" stroke-linejoin="round"/>
<path d="M75.7648 335.35C74.4193 334.883 73.0979 334.344 71.8047 333.75" stroke="#263238" stroke-miterlimit="10" stroke-linecap="round" stroke-linejoin="round"/>
<path d="M198.971 232.016C199.962 232.963 201.182 233.757 202.559 233.973" stroke="#263238" stroke-miterlimit="10" stroke-linecap="round" stroke-linejoin="round"/>
<path d="M194.973 226.18C195.577 227.503 196.32 228.768 197.175 229.944" stroke="#263238" stroke-miterlimit="10" stroke-linecap="round" stroke-linejoin="round"/>
<path d="M118.785 210.45C118.785 210.45 124.237 218.32 133.597 217.243C138.761 216.643 138.231 212.665 138.231 212.665C138.231 212.665 137.256 212.166 136.671 210.668C136.117 209.256 135.906 206.955 137.193 203.359C137.224 203.258 137.263 203.149 137.302 203.047C138.769 199.108 121.102 193.633 121.102 193.633C121.102 193.633 123.262 203.82 118.785 210.45Z" fill="white" stroke="#263238" stroke-miterlimit="10" stroke-linecap="round" stroke-linejoin="round"/>
<path d="M127.342 200.648C127.342 200.648 130.618 208.815 136.671 210.671C136.117 209.26 135.906 206.959 137.193 203.363L127.342 200.648Z" fill="#263238"/>
<path d="M125.729 198.732C125.315 202.235 134.24 207.53 139.46 207.516C141.852 207.51 145.161 202.907 146.557 196.109C147.262 192.678 145.169 189.321 146.866 184.538C148.318 180.446 145.48 168.253 133.443 167.257C116.242 165.834 114.24 184.274 121.856 196.712" fill="white"/>
<path d="M125.729 198.732C125.315 202.235 134.24 207.53 139.46 207.516C141.852 207.51 145.161 202.907 146.557 196.109C147.262 192.678 145.169 189.321 146.866 184.538C148.318 180.446 145.48 168.253 133.443 167.257C116.242 165.834 114.24 184.274 121.856 196.712" stroke="#263238" stroke-miterlimit="10" stroke-linecap="round" stroke-linejoin="round"/>
<path d="M147.213 183.607C147.213 183.607 145.785 181.447 143.008 182.064" stroke="#263238" stroke-miterlimit="10" stroke-linecap="round" stroke-linejoin="round"/>
<path d="M137.301 181.953C137.301 181.953 133.752 181.602 131.592 183.607" stroke="#263238" stroke-miterlimit="10" stroke-linecap="round" stroke-linejoin="round"/>
<path d="M142.084 184.383C141.775 187.931 145.787 193.872 144.784 194.72C143.781 195.569 141.39 194.411 140.465 193.949" stroke="#263238" stroke-miterlimit="10" stroke-linecap="round" stroke-linejoin="round"/>
<path d="M135.835 188.467C136.218 188.467 136.529 188.036 136.529 187.503C136.529 186.971 136.218 186.539 135.835 186.539C135.451 186.539 135.141 186.971 135.141 187.503C135.141 188.036 135.451 188.467 135.835 188.467Z" fill="#263238"/>
<path d="M144.251 188.467C144.634 188.467 144.945 188.036 144.945 187.503C144.945 186.971 144.634 186.539 144.251 186.539C143.867 186.539 143.557 186.971 143.557 187.503C143.557 188.036 143.867 188.467 144.251 188.467Z" fill="#263238"/>
<path d="M142.005 198.495C142.005 198.495 137.917 199.035 135.834 196.875" stroke="#263238" stroke-miterlimit="10" stroke-linecap="round" stroke-linejoin="round"/>
<path d="M136.529 197.453C136.529 197.453 136.761 199.423 138.921 199.962C141.081 200.502 141.003 198.557 141.003 198.557" stroke="#263238" stroke-miterlimit="10" stroke-linecap="round" stroke-linejoin="round"/>
<path d="M130.435 175.123C130.435 175.123 149.566 180.368 151.572 172.269C151.572 172.269 148.092 172.685 144.25 168.489C139.537 163.341 131.978 162.009 125.575 164.323C119.172 166.637 119.558 169.992 119.558 169.992C119.558 169.992 115.778 170.495 114.081 175.046C112.383 179.598 115.061 195.694 121.486 199.115L123.26 196.878C123.26 196.878 122.549 192.287 125.575 188.855L127.272 189.291C127.272 189.291 125.42 185.316 127.349 183.146C129.277 180.976 130.589 178.132 130.435 175.123Z" fill="#263238"/>
<path d="M125.574 188.468C125.574 188.468 123.645 182.913 121.177 184.379C118.708 185.845 121.409 196.49 125.574 194.099" fill="white"/>
<path d="M125.574 188.468C125.574 188.468 123.645 182.913 121.177 184.379C118.708 185.845 121.409 196.49 125.574 194.099" stroke="#263238" stroke-miterlimit="10" stroke-linecap="round" stroke-linejoin="round"/>
<path opacity="0.3" d="M125.574 170.614C125.574 170.614 137.468 172.619 141.003 167.836" stroke="white" stroke-miterlimit="10" stroke-linecap="round" stroke-linejoin="round"/>
<path opacity="0.3" d="M133.289 173.391C133.289 173.391 141.556 176.167 147.214 173.391" stroke="white" stroke-miterlimit="10" stroke-linecap="round" stroke-linejoin="round"/>
<path opacity="0.3" d="M122.904 174.625C122.904 174.625 122.785 181.482 116.459 183.607" stroke="white" stroke-miterlimit="10" stroke-linecap="round" stroke-linejoin="round"/>
<circle cx="196" cy="386" r="4" fill="#969696"/>
<circle cx="212" cy="386" r="4" fill="#D9D9D9"/>
<circle cx="228" cy="386" r="4" fill="#D9D9D9"/>
</svg>
