<?xml version="1.0" encoding="utf-8"?>
<svg width="390" height="390" viewBox="0 0 390 390" fill="none" xmlns="http://www.w3.org/2000/svg">
  <path d="M368.5 174.687C356.698 117.608 319.331 69.0916 267.071 43.2814C261.59 40.574 255.772 37.8409 249.599 35.0977C172.379 0.77766 127.919 30.4177 105.299 64.7377C82.6794 99.0577 54.5994 158.338 36.6594 187.198C18.7194 216.058 -4.68056 276.898 40.5594 319.018C85.7994 361.138 128.699 347.098 158.339 335.398C187.979 323.698 217.619 333.838 272.219 333.838C326.819 333.838 372.059 291.718 375.179 239.458C376.321 220.33 373.075 196.816 368.5 174.687Z" fill="#92E3A9"/>
  <path opacity="0.7" d="M368.5 174.687C356.698 117.608 319.331 69.0916 267.071 43.2814C261.59 40.574 255.772 37.8409 249.599 35.0977C172.379 0.77766 127.919 30.4177 105.299 64.7377C82.6794 99.0577 54.5994 158.338 36.6594 187.198C18.7194 216.058 -4.68056 276.898 40.5594 319.018C85.7994 361.138 128.699 347.098 158.339 335.398C187.979 323.698 217.619 333.838 272.219 333.838C326.819 333.838 372.059 291.718 375.179 239.458C376.321 220.33 373.075 196.816 368.5 174.687Z" fill="white"/>
  <path d="M342.93 261.875C340.5 261.614 337.613 264.944 336.724 266.937C336.648 267.11 335.757 269.942 335.802 269.942C335.802 269.942 335.844 269.941 335.854 269.941C335.394 270.464 334.907 271.028 334.387 271.657C333.442 272.819 332.385 274.139 331.331 275.652C331.312 273.301 330.896 268.419 327.793 268.124C323.698 267.734 322.528 272.414 325.063 274.949C326.842 276.727 329.191 276.969 330.437 276.956C329.652 278.128 328.863 279.388 328.126 280.754C327.11 282.633 326.137 284.661 325.404 286.882C325.396 286.907 325.39 286.934 325.382 286.959C325.395 286.243 325.363 284.24 325.343 284.087C325.063 281.923 323.249 277.906 320.845 277.461C319.113 277.141 317.647 278.498 317.509 280.182C317.369 281.901 318.615 283.622 319.831 284.708C321.202 285.933 325.008 287.119 325.311 287.212C324.633 289.333 324.109 291.564 323.704 293.851C323.471 295.159 323.276 296.483 323.098 297.813C323.088 297.194 323.076 296.64 323.066 296.563C322.785 294.398 320.971 290.381 318.567 289.937C316.836 289.617 315.369 290.974 315.231 292.657C315.09 294.377 316.337 296.098 317.553 297.184C318.787 298.286 322.011 299.363 322.868 299.636C322.805 300.147 322.737 300.656 322.676 301.168C322.382 303.62 322.101 306.069 321.751 308.463C321.627 309.307 321.475 310.133 321.326 310.96C321.318 310.41 321.306 309.947 321.297 309.876C321.016 307.712 319.202 303.695 316.798 303.251C315.067 302.931 313.6 304.288 313.462 305.972C313.321 307.691 314.568 309.412 315.784 310.498C316.961 311.549 319.929 312.57 320.946 312.9C320.767 313.742 320.59 314.586 320.379 315.395C320.223 315.943 320.11 316.483 319.923 317.025C319.748 317.566 319.576 318.101 319.404 318.632C319.037 319.641 318.665 320.685 318.282 321.66C318.021 322.34 317.759 322.983 317.498 323.633C317.631 322.795 317.855 321.149 317.858 321.009C317.891 319.559 317.376 317.202 316.351 315.545C316.358 315.332 316.345 315.118 316.312 314.906C316.043 313.238 314.476 311.999 312.775 312.452C310.413 313.081 308.916 317.226 308.803 319.406C308.796 319.534 308.881 320.937 308.948 321.821C308.83 321.307 308.72 320.807 308.591 320.28C308.344 319.236 308.066 318.201 307.771 317.085C307.609 316.552 307.446 316.013 307.282 315.469C307.13 314.926 306.901 314.372 306.711 313.817C306.244 312.54 305.709 311.268 305.141 309.999C306.055 309.78 309.291 308.955 310.59 307.958C311.883 306.966 313.254 305.342 313.242 303.618C313.23 301.928 311.87 300.466 310.118 300.657C307.689 300.92 305.58 304.792 305.139 306.929C305.112 307.062 304.967 308.632 304.905 309.495C304.558 308.734 304.215 307.974 303.839 307.217C302.753 305.029 301.585 302.849 300.431 300.67C300.077 300.002 299.732 299.333 299.384 298.665C299.71 298.591 303.577 297.693 305.032 296.577C306.325 295.584 307.697 293.96 307.685 292.236C307.672 290.546 306.312 289.085 304.561 289.275C302.131 289.539 300.023 293.41 299.581 295.547C299.549 295.708 299.344 297.967 299.321 298.543C298.556 297.07 297.807 295.595 297.128 294.11C296.188 292.064 295.378 290.004 294.742 287.95C294.894 287.915 298.933 286.997 300.424 285.854C301.717 284.862 303.089 283.239 303.077 281.513C303.065 279.824 301.703 278.362 299.953 278.552C297.523 278.816 295.414 282.687 294.973 284.824C294.944 284.965 294.787 286.686 294.731 287.506C294.655 287.514 294.669 287.512 294.593 287.521C293.937 285.312 293.581 283.09 293.349 280.994C293.213 279.78 293.15 278.612 293.115 277.474C293.885 277.381 297.399 276.913 298.854 276.032C300.248 275.188 301.79 273.725 301.967 272.009C302.14 270.329 300.948 268.726 299.187 268.723C296.743 268.718 294.222 272.334 293.549 274.41C293.512 274.523 293.267 275.712 293.101 276.58C293.093 276.067 293.075 275.536 293.078 275.044C293.081 273.196 293.198 271.503 293.313 270.006C293.386 269.155 293.469 268.387 293.554 267.668C294.261 267.182 297.088 265.186 297.957 263.76C298.806 262.369 299.5 260.36 298.866 258.755C298.245 257.184 296.449 256.311 294.885 257.12C292.714 258.242 292.143 262.612 292.502 264.765C292.533 264.951 293.353 267.805 293.391 267.78C293.391 267.78 293.425 267.756 293.434 267.75C293.338 268.44 293.244 269.18 293.157 269.99C293.008 271.489 292.854 273.183 292.81 275.038C292.802 275.379 292.797 275.73 292.792 276.081C291.861 274.645 288.922 270.619 285.747 271.474C281.9 272.51 282.788 275.912 285.896 276.652C288.495 277.271 291.779 276.805 292.787 276.636C292.78 278.033 292.816 279.503 292.954 281.031C293.143 283.16 293.45 285.389 294.064 287.645C294.071 287.671 294.081 287.696 294.088 287.721C293.703 287.118 292.572 285.465 292.471 285.347C291.043 283.696 287.314 281.347 285.064 282.302C283.443 282.991 282.968 284.93 283.783 286.411C284.614 287.923 286.603 288.671 288.216 288.905C290.035 289.171 293.864 288.061 294.168 287.971C294.773 290.114 295.567 292.264 296.49 294.396C297.017 295.615 297.585 296.827 298.17 298.034C297.821 297.523 297.505 297.068 297.454 297.009C296.026 295.359 292.297 293.01 290.048 293.964C288.427 294.652 287.952 296.593 288.766 298.073C289.597 299.586 291.586 300.333 293.2 300.569C294.836 300.807 298.119 299.926 298.985 299.681C299.214 300.142 299.438 300.605 299.669 301.065C300.778 303.272 301.893 305.47 302.921 307.66C303.284 308.431 303.613 309.204 303.946 309.976C303.635 309.522 303.369 309.142 303.323 309.089C301.895 307.438 298.166 305.089 295.916 306.043C294.295 306.731 293.821 308.672 294.635 310.152C295.466 311.664 297.455 312.412 299.068 312.647C300.631 312.875 303.668 312.088 304.697 311.803C305.013 312.604 305.332 313.406 305.602 314.196C305.774 314.74 305.977 315.252 306.12 315.807C306.273 316.355 306.424 316.897 306.574 317.434C306.825 318.478 307.09 319.554 307.308 320.579C307.466 321.29 307.603 321.971 307.743 322.657C307.391 321.884 306.669 320.388 306.594 320.269C305.433 318.421 302.103 315.534 299.734 316.137C298.028 316.573 297.265 318.418 297.845 320.005C298.438 321.625 300.291 322.665 301.85 323.143C303.566 323.668 307.366 323.188 307.84 323.125C308.068 324.26 308.278 325.366 308.46 326.414C309.101 330.043 309.495 333.09 309.742 335.222C309.785 335.602 309.823 335.94 309.856 336.259H302.501L304.154 368.507H318.754L320.407 336.259H313.554C313.604 336.154 313.653 336.056 313.706 335.945C314.646 333.986 315.95 331.17 317.358 327.726C317.806 326.639 318.262 325.468 318.72 324.26C319.181 324.356 322.942 325.121 324.695 324.725C326.285 324.366 328.211 323.466 328.922 321.895C329.619 320.356 328.995 318.458 327.326 317.897C325.009 317.119 321.473 319.75 320.177 321.506C320.101 321.61 319.397 322.827 318.965 323.601C319.15 323.108 319.334 322.629 319.517 322.118C319.887 321.111 320.227 320.094 320.595 319.002C320.755 318.468 320.916 317.928 321.079 317.384C321.252 316.847 321.367 316.258 321.515 315.691C321.83 314.368 322.084 313.013 322.311 311.641C323.195 311.962 326.348 313.059 327.982 312.945C329.608 312.83 331.647 312.233 332.589 310.787C333.511 309.372 333.182 307.401 331.617 306.594C329.445 305.474 325.551 307.54 324.003 309.078C323.907 309.174 322.921 310.404 322.393 311.089C322.522 310.263 322.656 309.44 322.76 308.601C323.061 306.178 323.29 303.715 323.529 301.261C323.602 300.509 323.683 299.76 323.762 299.01C324.075 299.128 327.796 300.513 329.625 300.385C331.251 300.271 333.29 299.673 334.232 298.227C335.154 296.811 334.825 294.841 333.26 294.034C331.088 292.914 327.194 294.978 325.647 296.518C325.53 296.634 324.115 298.405 323.777 298.873C323.952 297.222 324.141 295.578 324.393 293.966C324.738 291.74 325.2 289.575 325.802 287.511C325.948 287.567 329.824 289.029 331.697 288.898C333.323 288.784 335.363 288.187 336.305 286.741C337.227 285.325 336.897 283.355 335.333 282.548C333.16 281.427 329.267 283.492 327.72 285.032C327.619 285.133 326.539 286.481 326.04 287.134C325.971 287.099 325.984 287.105 325.916 287.07C326.587 284.866 327.516 282.817 328.479 280.942C329.035 279.854 329.627 278.846 330.225 277.878C330.92 278.224 334.108 279.772 335.807 279.84C337.436 279.905 339.528 279.535 340.624 278.202C341.695 276.896 341.584 274.901 340.118 273.928C338.082 272.575 333.985 274.201 332.278 275.561C332.214 275.612 331.785 276.036 331.323 276.5C331.326 276.398 331.329 276.28 331.331 276.145C331.399 276.04 331.468 275.931 331.535 275.829C332.558 274.29 333.589 272.943 334.511 271.757C335.042 271.087 335.534 270.492 336.001 269.94C336.86 269.925 340.318 269.819 341.83 269.11C343.305 268.417 344.993 267.124 345.35 265.436C345.697 263.783 344.68 262.063 342.93 261.875ZM316.025 327.162C314.556 330.542 313.204 333.301 312.234 335.216C312.038 335.602 311.862 335.944 311.699 336.258H311.537C311.489 335.885 311.435 335.476 311.372 335.017C311.076 332.865 310.61 329.797 309.884 326.147C309.658 324.994 309.393 323.764 309.108 322.506C309.394 322.393 311.015 321.737 312.451 320.934C313.702 322.289 316.907 323.874 317.322 324.076C316.885 325.149 316.451 326.188 316.025 327.162ZM330.887 276.939C330.826 277.001 330.764 277.063 330.707 277.123C330.746 277.063 330.783 277.003 330.821 276.943C330.842 276.942 330.866 276.941 330.887 276.939Z" fill="#263238"/>
  <path opacity="0.3" d="M224.318 230.933C221.995 240.149 227.603 249.537 236.819 251.86C242.106 253.192 247.442 251.906 251.475 248.835L258.142 255.216C257.811 256.587 258.175 258.089 259.261 259.142L273.739 273.388C275.373 274.976 277.986 274.938 279.573 273.303C280.095 272.765 280.443 272.12 280.613 271.441C280.962 270.059 280.584 268.534 279.487 267.47L265.009 253.223C263.908 252.154 262.37 251.84 260.995 252.236L254.433 245.954C255.955 244.073 257.116 241.854 257.745 239.357C260.068 230.141 254.461 220.753 245.245 218.43C236.029 216.109 226.641 221.717 224.318 230.933ZM254.745 238.603C252.839 246.165 245.137 250.766 237.575 248.86C230.013 246.953 225.412 239.251 227.318 231.69C229.224 224.127 236.926 219.526 244.488 221.433C252.051 223.338 256.652 231.041 254.745 238.603Z" stroke="black" stroke-miterlimit="10"/>
  <g opacity="0.3">
    <path d="M161.058 45.6491C165.077 36.41 174.282 29.9531 184.994 29.9531C199.403 29.9531 211.086 41.636 211.086 56.0449C211.086 70.4593 199.403 82.1367 184.994 82.1367C170.585 82.1367 158.902 70.4593 158.902 56.0449C158.902 52.7993 159.495 49.6957 160.579 46.8284" stroke="black" stroke-miterlimit="10"/>
    <path d="M160.766 45.5448C164.835 36.1934 174.164 29.6406 184.996 29.6406C199.557 29.6406 211.403 41.4873 211.403 56.0483C211.403 70.6156 199.557 82.4622 184.996 82.4622C170.435 82.4622 158.588 70.6156 158.588 56.0483C158.588 52.7692 159.192 49.6258 160.287 46.7242" stroke="black" stroke-width="0.5" stroke-miterlimit="10"/>
    <path d="M167.618 48.1305C170.627 41.5388 177.275 36.9609 184.996 36.9609C195.538 36.9609 204.09 45.5058 204.09 56.0491C204.09 66.5978 195.539 75.1427 184.996 75.1427C174.453 75.1427 165.902 66.5978 165.902 56.0491C165.902 53.6732 166.337 51.3987 167.132 49.3044" stroke="black" stroke-miterlimit="10"/>
    <path d="M167.324 48.0185C170.388 41.3136 177.156 36.6406 184.995 36.6406C195.696 36.6406 204.404 45.3493 204.404 56.0501C204.404 66.7564 195.696 75.4597 184.995 75.4597C174.294 75.4597 165.586 66.7564 165.586 56.0494C165.586 53.6337 166.026 51.3257 166.839 49.1916" stroke="black" stroke-width="0.5" stroke-miterlimit="10"/>
    <path d="M175.981 51.3139C175.981 51.3085 175.986 51.2968 175.992 51.2913C177.702 48.0683 181.088 45.8672 184.994 45.8672C190.615 45.8672 195.175 50.4271 195.175 56.0485C195.175 61.6755 190.615 66.2299 184.994 66.2299C179.372 66.2299 174.812 61.6755 174.812 56.0485C174.812 54.7787 175.044 53.565 175.467 52.4473C175.472 52.4301 175.484 52.4137 175.49 52.3966" stroke="black" stroke-miterlimit="10"/>
    <path d="M175.575 51.4187C175.615 51.3399 175.654 51.2604 175.693 51.1816H175.699C177.454 47.8401 180.965 45.5547 184.994 45.5547C190.785 45.5547 195.492 50.2675 195.492 56.0527C195.492 61.8434 190.785 66.5562 184.994 66.5562C179.203 66.5562 174.496 61.8434 174.496 56.0527C174.496 54.7485 174.733 53.5013 175.173 52.3446" stroke="black" stroke-width="0.5" stroke-miterlimit="10"/>
    <path d="M176.15 51.3453C176.122 51.3343 176.094 51.3281 176.065 51.3172L175.992 51.2891L175.699 51.176H175.693L167.617 48.1285L167.324 48.0154L161.059 45.6505L160.765 45.5428L150.674 41.7333L151.171 38.008C151.188 37.8669 151.115 37.7319 150.984 37.675L143.003 34.0971C142.885 34.0464 142.749 34.069 142.659 34.1533C142.563 34.2383 142.53 34.3678 142.569 34.4918L144.189 39.2888L142.998 38.8372C142.665 38.7132 142.298 38.8824 142.174 39.21C142.05 39.5376 142.219 39.9042 142.547 40.0282L143.789 40.497L140.063 43.3588C139.962 43.4376 139.917 43.5679 139.95 43.6919C139.978 43.8105 140.08 43.9064 140.21 43.9236L149.156 45.301C149.173 45.3065 149.189 45.3065 149.201 45.3065C149.331 45.3065 149.449 45.2277 149.501 45.1029L150.342 42.9696L160.286 46.723L160.579 46.8298L166.839 49.1893L167.132 49.3024L175.174 52.339L175.468 52.4458L175.705 52.5363" stroke="black" stroke-miterlimit="10"/>
    <path d="M175.982 51.3115C176.01 51.3115 176.038 51.317 176.067 51.317C176.095 51.3279 176.123 51.3341 176.152 51.3451L181.903 53.5181L182.534 51.622C182.619 51.3622 182.862 51.1875 183.133 51.1875C183.138 51.1875 183.138 51.1875 183.144 51.1875C183.42 51.193 183.663 51.3739 183.742 51.6391L184.893 55.3753C184.984 55.6686 184.848 55.9907 184.571 56.1319L181.693 57.5656C181.602 57.6108 181.506 57.6334 181.41 57.6334C181.258 57.6334 181.112 57.5827 180.993 57.4813C180.801 57.3121 180.728 57.0414 180.807 56.798L181.495 54.7264L175.705 52.5361C175.62 52.5026 175.546 52.4573 175.49 52.3949" stroke="black" stroke-miterlimit="10"/>
  </g>
  <path opacity="0.3" d="M96.0626 324.828L103.072 326.427L104.695 319.315L97.9611 317.779C97.9681 317.578 97.9915 317.381 97.9915 317.178C97.9915 314.947 97.5375 312.822 96.7178 310.89L102.18 306.534L97.6319 300.831L92.409 304.996C90.6026 303.432 88.4459 302.27 86.0708 301.63V294.828H78.7762V301.361C76.3215 301.839 74.0751 302.882 72.1556 304.336L66.8742 300.125L62.326 305.828L67.4818 309.94C66.4226 312.04 65.8071 314.399 65.7642 316.902L59.0469 318.436L60.6701 325.548L67.2977 324.035C68.3086 326.179 69.7641 328.071 71.5651 329.572L68.4825 335.972L75.0548 339.138L78.0898 332.836C79.305 333.128 80.5671 333.301 81.872 333.301C82.9188 333.301 83.9406 333.193 84.932 333.002L88.0754 339.53L94.6476 336.365L91.5916 330.019C93.4246 328.627 94.962 326.867 96.0626 324.828ZM74.714 317.178C74.714 313.225 77.9182 310.021 81.8712 310.021C85.8243 310.021 89.0285 313.225 89.0285 317.178C89.0285 321.131 85.8243 324.336 81.8712 324.336C77.9182 324.336 74.714 321.131 74.714 317.178Z" stroke="black" stroke-miterlimit="10" stroke-linecap="round" stroke-linejoin="round"/>
  <path opacity="0.3" d="M109.503 289.871L115.254 291.183L116.585 285.349L111.061 284.088C111.067 283.923 111.086 283.762 111.086 283.595C111.086 281.764 110.713 280.021 110.04 278.435L114.521 274.862L110.79 270.183L106.505 273.6C105.023 272.317 103.254 271.363 101.304 270.838V265.258H95.3194V270.618C93.3054 271.01 91.4623 271.865 89.8874 273.059L85.5545 269.603L81.823 274.282L86.053 277.655C85.184 279.379 84.6786 281.314 84.6443 283.368L79.1328 284.626L80.4643 290.46L85.9016 289.219C86.7308 290.978 87.925 292.531 89.4031 293.761L86.8743 299.013L92.2665 301.61L94.7562 296.439C95.7531 296.679 96.7881 296.82 97.859 296.82C98.7178 296.82 99.5563 296.732 100.37 296.575L102.949 301.93L108.341 299.334L105.834 294.127C107.338 292.988 108.6 291.543 109.503 289.871ZM91.9872 283.595C91.9872 280.352 94.6158 277.723 97.859 277.723C101.102 277.723 103.731 280.352 103.731 283.595C103.731 286.838 101.102 289.467 97.859 289.467C94.6166 289.467 91.9872 286.838 91.9872 283.595Z" stroke="black" stroke-miterlimit="10" stroke-linecap="round" stroke-linejoin="round"/>
  <g opacity="0.3">
    <path d="M53.5372 41.5399C56.6614 33.9974 53.0798 25.3503 45.5373 22.226C37.9948 19.1018 29.3477 22.6834 26.2234 30.2259C23.0991 37.7684 26.6808 46.4155 34.2233 49.5398C41.7658 52.6641 50.4129 49.0824 53.5372 41.5399Z" stroke="black" stroke-miterlimit="10"/>
    <path d="M44.7779 34.8906H35.1449C33.2644 34.8906 31.7402 36.4147 31.7402 38.2953V46.3753C33.9898 48.1233 36.8087 49.1748 39.8788 49.1748C43.0229 49.1748 45.9074 48.0765 48.1834 46.2513V38.2953C48.1834 36.4147 46.6585 34.8906 44.7779 34.8906Z" stroke="black" stroke-miterlimit="10"/>
    <path d="M39.7957 33.3921C42.5015 33.3921 44.6948 31.1988 44.6948 28.4929C44.6948 25.7871 42.5015 23.5938 39.7957 23.5938C37.0898 23.5938 34.8965 25.7871 34.8965 28.4929C34.8965 31.1988 37.0898 33.3921 39.7957 33.3921Z" stroke="black" stroke-miterlimit="10"/>
  </g>
  <g opacity="0.3">
    <path d="M144.772 147.798C147.914 140.263 144.353 131.607 136.818 128.465C129.282 125.323 120.627 128.884 117.484 136.419C114.342 143.954 117.903 152.61 125.439 155.752C132.974 158.894 141.629 155.333 144.772 147.798Z" stroke="black" stroke-miterlimit="10"/>
    <path d="M136.022 141.109H126.389C124.508 141.109 122.984 142.633 122.984 144.514V152.594C125.234 154.343 128.053 155.394 131.123 155.394C134.267 155.394 137.152 154.295 139.428 152.47V144.514C139.427 142.634 137.903 141.109 136.022 141.109Z" stroke="black" stroke-miterlimit="10"/>
    <path d="M131.04 139.619C133.746 139.619 135.939 137.425 135.939 134.719C135.939 132.014 133.746 129.82 131.04 129.82C128.334 129.82 126.141 132.014 126.141 134.719C126.141 137.425 128.334 139.619 131.04 139.619Z" stroke="black" stroke-miterlimit="10"/>
  </g>
  <g opacity="0.3">
    <path d="M367.07 154.025C370.213 146.489 366.651 137.834 359.116 134.691C351.581 131.549 342.925 135.11 339.783 142.645C336.641 150.181 340.202 158.836 347.737 161.979C355.272 165.121 363.928 161.56 367.07 154.025Z" stroke="black" stroke-miterlimit="10"/>
    <path d="M358.321 147.352H348.688C346.807 147.352 345.283 148.876 345.283 150.756V158.836C347.533 160.585 350.352 161.636 353.422 161.636C356.566 161.636 359.45 160.537 361.726 158.712V150.756C361.726 148.876 360.201 147.352 358.321 147.352Z" stroke="black" stroke-miterlimit="10"/>
    <path d="M353.339 145.861C356.044 145.861 358.238 143.667 358.238 140.962C358.238 138.256 356.044 136.062 353.339 136.062C350.633 136.062 348.439 138.256 348.439 140.962C348.439 143.667 350.633 145.861 353.339 145.861Z" stroke="black" stroke-miterlimit="10"/>
  </g>
  <g opacity="0.3">
    <path d="M282.047 35.4698C285.189 27.9347 281.628 19.2789 274.093 16.1367C266.558 12.9945 257.902 16.5557 254.76 24.0908C251.618 31.6259 255.179 40.2817 262.714 43.4239C270.249 46.5661 278.905 43.005 282.047 35.4698Z" stroke="black" stroke-miterlimit="10"/>
    <path d="M273.303 28.7891H263.67C261.79 28.7891 260.266 30.3132 260.266 32.1938V40.2738C262.515 42.0225 265.334 43.0732 268.404 43.0732C271.548 43.0732 274.433 41.975 276.709 40.1498V32.1938C276.708 30.314 275.184 28.7891 273.303 28.7891Z" stroke="black" stroke-miterlimit="10"/>
    <path d="M268.321 27.2984C271.027 27.2984 273.22 25.105 273.22 22.3992C273.22 19.6934 271.027 17.5 268.321 17.5C265.615 17.5 263.422 19.6934 263.422 22.3992C263.422 25.105 265.615 27.2984 268.321 27.2984Z" stroke="black" stroke-miterlimit="10"/>
  </g>
  <path d="M302.791 168.146C302.791 168.146 297.803 168.167 292.601 173.599C287.399 179.032 284.502 186.508 285.716 188.724C286.93 190.94 288.3 194.681 288.266 195.547C288.232 196.413 281.281 202.211 282.902 205.093C284.523 207.976 284.888 209.726 283.364 209.883C281.84 210.039 279.156 212.102 279.529 213.634C279.902 215.167 282.449 216.569 281.298 218.258C280.148 219.948 279.29 219.697 279.205 221.862C279.12 224.027 281.113 225.859 279.96 226.129C278.808 226.4 276.627 226.748 277.216 228.289C277.806 229.83 279.245 231.839 279.245 231.839C279.245 231.839 286.915 240.815 303.293 243.413C319.67 246.01 336.039 232.344 338.507 230.273C340.974 228.202 341.432 227.569 341.483 226.27C341.534 224.97 340.728 223.421 340.354 221.888C339.981 220.356 340.751 217.35 340.776 216.701C340.801 216.051 339.354 214.259 338.305 213.351C337.257 212.442 337.134 210.052 337.652 207.904C338.171 205.756 336.065 204.155 335.225 203.471C334.385 202.787 333.812 200.813 334.539 198.89C335.265 196.967 332.744 194.916 331.696 194.007C330.647 193.099 330.508 191.142 331.026 188.993C331.544 186.845 328.909 182.188 327.47 180.179C326.03 178.171 324.33 171.816 316.205 168.893C308.081 165.969 302.791 168.146 302.791 168.146Z" fill="#263238" stroke="#263238" stroke-miterlimit="10" stroke-linecap="round" stroke-linejoin="round"/>
  <path d="M284.717 246.449C291.408 250.258 299.148 252.438 307.398 252.438C317.328 252.438 326.516 249.279 334.027 243.922C334.06 239.793 334.066 236.327 334.007 234.835C333.819 230.066 332.513 223.266 330.797 221.88C329.082 220.494 325.508 219.388 320.26 217.934C315.012 216.48 307.1 215.961 307.1 215.961C307.1 215.961 297.76 221.313 291.407 223.431C285.054 225.55 284.779 239.681 284.918 243.205C284.943 243.807 284.859 244.957 284.717 246.449Z" fill="white" stroke="#263238" stroke-miterlimit="10" stroke-linecap="round" stroke-linejoin="round"/>
  <path d="M284.717 246.45C291.408 250.26 299.148 252.44 307.398 252.44C317.328 252.44 326.516 249.281 334.027 243.923C334.06 239.794 334.066 236.328 334.007 234.836C333.911 232.426 333.684 233.385 333.109 230.898C330.094 233.732 323.412 238.4 310.268 239.921C298.277 241.308 288.443 236.779 285.376 234.882C284.876 238.408 284.86 241.733 284.918 243.206C284.943 243.808 284.859 244.958 284.717 246.45Z" fill="white" stroke="#263238" stroke-miterlimit="10" stroke-linecap="round" stroke-linejoin="round"/>
  <path d="M300.137 228.903C300.137 228.903 299.932 223.72 299.745 218.952C299.557 214.184 298.854 212.135 298.854 212.135C298.854 212.135 302.219 213.248 305.545 213.325C308.87 213.401 313.858 208.222 314.239 207.376C314.621 206.53 315.186 205.055 315.186 205.055C315.186 205.055 315.712 213.132 316.456 216.217C317.2 219.302 317.688 221.152 317.688 221.152" fill="white"/>
  <path d="M300.137 228.903C300.137 228.903 299.932 223.72 299.745 218.952C299.557 214.184 298.854 212.135 298.854 212.135C298.854 212.135 302.219 213.248 305.545 213.325C308.87 213.401 313.858 208.222 314.239 207.376C314.621 206.53 315.186 205.055 315.186 205.055C315.186 205.055 315.712 213.132 316.456 216.217C317.2 219.302 317.688 221.152 317.688 221.152" stroke="#263238" stroke-miterlimit="10" stroke-linecap="round"/>
  <path d="M303.18 220.383C308.233 217.603 312.589 211.162 312.589 211.162L312.88 208.984C311.085 210.796 307.9 213.379 305.543 213.325C302.218 213.249 298.852 212.135 298.852 212.135C298.852 212.135 299.555 214.183 299.743 218.952C299.785 220.025 299.828 221.117 299.869 222.168C300.687 221.74 301.757 221.166 303.18 220.383Z" fill="#263238" stroke="#263238" stroke-miterlimit="10" stroke-linecap="round" stroke-linejoin="round"/>
  <path d="M322.514 193.029L319.196 192.796C319.196 192.796 319.205 192.319 319.149 191.528C319.029 191.372 318.909 191.215 318.797 191.069C318.262 190.37 318.029 190.548 317.028 190.205C316.027 189.863 315.835 188.162 316.054 186.517C316.273 184.872 314.271 184.187 312.228 182.241C310.555 180.646 310.169 177.822 310.084 176.852C309.301 176.611 308.533 176.458 307.805 176.367C307.373 177.438 306.449 179.439 305.085 180.871C303.138 182.914 301.726 182.517 301.15 183.696C300.575 184.875 299.355 186.178 298.504 186.274C297.654 186.37 295.597 186.096 295.461 187.124C295.324 188.152 294.488 189.715 293.816 190.044C293.67 190.115 293.491 190.204 293.303 190.296C293.275 192.661 293.418 194.604 293.364 195.008C293.254 195.831 292.543 201.177 294.394 204.563C296.246 207.949 299.66 215.312 305.008 216.024C310.355 216.736 315.838 210.14 316.908 208.399C317.977 206.657 319.1 201.365 319.1 201.365C319.1 201.365 320.937 200.144 322.267 198.018C323.597 195.894 322.514 193.029 322.514 193.029Z" fill="white" stroke="#263238" stroke-miterlimit="10" stroke-linecap="round" stroke-linejoin="round"/>
  <path d="M293.968 187.339C294.16 185.9 295.928 183.624 296.545 183.705C297.162 183.787 299.383 182.828 299.931 181.854C300.479 180.88 300.411 179.824 301.493 179.55C302.577 179.276 302.768 177.836 302.768 177.836C302.768 177.836 299.505 180.332 297.75 180.936C295.995 181.539 295.296 182.074 294.364 182.787C293.76 184.364 293.485 186.371 293.371 188.304C293.65 188.164 293.896 187.882 293.968 187.339Z" fill="white" stroke="#263238" stroke-miterlimit="10" stroke-linecap="round" stroke-linejoin="round"/>
  <path d="M302.758 204.633C302.758 204.633 303.745 206.648 306.405 205.537" stroke="#263238" stroke-miterlimit="10" stroke-linecap="round" stroke-linejoin="round"/>
  <path d="M302.348 207.72C302.348 207.72 306.241 209.913 308.297 207.047" stroke="#263238" stroke-miterlimit="10" stroke-linecap="round" stroke-linejoin="round"/>
  <path d="M299.886 196.319C299.855 197.178 299.459 197.861 299.001 197.845C298.543 197.828 298.196 197.119 298.226 196.26C298.257 195.402 298.653 194.718 299.111 194.735C299.569 194.751 299.916 195.46 299.886 196.319Z" fill="#263238"/>
  <path d="M310.292 196.764C310.261 197.623 309.865 198.306 309.407 198.29C308.949 198.273 308.602 197.564 308.633 196.706C308.663 195.847 309.059 195.164 309.517 195.18C309.976 195.196 310.322 195.905 310.292 196.764Z" fill="#263238"/>
  <path d="M296.012 192.429C296.012 192.429 297.286 190.715 300.522 191.565" stroke="#263238" stroke-miterlimit="10" stroke-linecap="round" stroke-linejoin="round"/>
  <path d="M307.775 192.115C307.775 192.115 311.257 191.113 313.451 193.499" stroke="#263238" stroke-miterlimit="10" stroke-linecap="round" stroke-linejoin="round"/>
  <path d="M301.084 192.062C301.084 192.062 303.374 195.298 302.99 198.177" stroke="#263238" stroke-miterlimit="10" stroke-linecap="round" stroke-linejoin="round"/>
  <path d="M292.26 249.877C292.784 246.316 293.292 242.795 293.719 239.954C295.035 231.181 299.577 219.998 299.577 219.998C297.903 219.648 281.761 226.305 278.343 229.139C276.853 230.374 275.132 233.748 273.541 237.528C278.613 243.065 285.023 247.35 292.26 249.877Z" fill="#92E3A9" stroke="#263238" stroke-miterlimit="10" stroke-linecap="round" stroke-linejoin="round"/>
  <path d="M346.332 230.858C343.811 227.882 340.701 225.632 338.128 224.599C335.844 222.996 333.297 221.836 331.596 221.019C327.997 219.292 318.363 217.18 318.363 217.18C318.363 217.18 317.5 241.938 318.842 250.993C330.384 248.032 340.169 240.698 346.332 230.858Z" fill="#92E3A9" stroke="#263238" stroke-miterlimit="10" stroke-linecap="round" stroke-linejoin="round"/>
  <path d="M339.861 238.991C357.792 221.06 357.792 191.987 339.861 174.056C321.93 156.125 292.858 156.125 274.926 174.056C256.995 191.987 256.995 221.06 274.926 238.991C292.858 256.922 321.93 256.922 339.861 238.991Z" stroke="#263238" stroke-miterlimit="10"/>
  <path d="M317.699 139.288C342.414 133.605 357.842 108.963 352.159 84.2484C346.476 59.5337 321.834 44.1054 297.119 49.7883C272.404 55.4712 256.976 80.1134 262.659 104.828C268.342 129.543 292.984 144.971 317.699 139.288Z" fill="#92E3A9"/>
  <path d="M307.398 140.449C321.808 140.449 334.662 133.808 343.08 123.423L324.87 109.196L311.61 105.427V104.906L308.295 105.166L304.98 104.906V105.427L291.72 106.466L271.066 122.602C279.464 133.457 292.612 140.449 307.398 140.449Z" fill="white" stroke="#263238" stroke-miterlimit="10"/>
  <path d="M295.23 103.737C295.23 103.737 291.72 104.517 290.55 104.517C289.38 104.517 285.09 123.627 285.09 123.627L299.91 118.947L306.15 125.187L311.22 119.337L326.04 125.967C326.04 125.967 324.87 108.027 324.87 105.687C324.87 103.347 311.22 100.227 311.22 100.227L295.23 103.737Z" fill="white" stroke="#263238" stroke-miterlimit="10"/>
  <path d="M293.279 95.9397L294.839 109.59L305.369 120.12L317.459 108.03L318.239 92.4297L293.279 95.9397Z" fill="#D4D4D4" stroke="#263238" stroke-miterlimit="10"/>
  <path d="M317.706 103.113L318.241 92.4297L316.856 92.6239L301.273 103.818L317.706 103.113Z" fill="#263238" stroke="#263238" stroke-miterlimit="10"/>
  <path d="M309.793 56.2407C309.793 56.2407 321.504 59.2414 322.247 64.5173C322.989 69.7924 322.402 80.7608 322.402 80.7608C322.402 80.7608 324.908 76.027 326.47 80.3895C328.033 84.752 325.171 87.6139 324.166 87.9235C323.16 88.2332 321.829 88.202 321.829 88.202C321.829 88.202 318.596 95.5816 316.833 97.0051C315.069 98.4286 308.479 104.199 305.864 105.003C303.25 105.807 298.717 106.101 297.418 104.74C296.118 103.379 290.812 94.0044 290.657 92.07C290.502 90.1364 289.31 72.6706 289.496 70.4117C289.682 68.1529 288.583 63.8675 293.409 59.5206C298.237 55.1737 309.793 56.2407 309.793 56.2407Z" fill="#D4D4D4" stroke="#263238" stroke-miterlimit="10"/>
  <path d="M293.41 59.5208C298.237 55.173 309.794 56.2409 309.794 56.2409C309.794 56.2409 321.505 59.2415 322.247 64.5174C322.99 69.7926 322.402 80.7609 322.402 80.7609C322.402 80.7609 321.149 83.1282 319.835 82.4317C318.519 81.7359 320.716 75.9959 320.716 75.9959C320.716 75.9959 319.958 74.2479 319.339 72.2371C318.72 70.2263 319.045 67.7045 319.834 65.26C320.622 62.8155 314.682 57.8188 311.479 58.1441C308.277 58.4693 304.162 60.8358 301.377 60.3717C298.593 59.9076 298.098 58.2985 298.098 58.2985C298.098 58.2985 297.371 58.0817 294.756 58.8866C294.29 59.0301 293.825 59.2673 293.373 59.5551C293.386 59.5434 293.398 59.5317 293.41 59.5208Z" fill="#263238" stroke="#263238" stroke-miterlimit="10"/>
  <path d="M303.324 74.9766L317.173 76.3291C317.173 76.3291 317.593 81.2236 316.844 82.509C316.095 83.7945 314.886 84.984 311.266 85.2858C307.646 85.5877 303.854 84.4114 303.424 82.7836C302.994 81.1565 303.324 74.9766 303.324 74.9766Z" stroke="#263238" stroke-width="2" stroke-miterlimit="10" stroke-linecap="round"/>
  <path d="M299.427 74.8906H285.512C285.512 74.8906 284.618 79.7212 285.239 81.0729C285.859 82.4254 286.947 83.7265 290.521 84.3793C294.094 85.0314 297.982 84.2296 298.568 82.6516C299.153 81.0729 299.427 74.8906 299.427 74.8906Z" stroke="#263238" stroke-width="2" stroke-miterlimit="10" stroke-linecap="round"/>
  <path d="M303.322 74.9765C303.322 74.9765 301.072 73.9266 299.426 74.8938" stroke="#263238" stroke-width="2" stroke-miterlimit="10" stroke-linecap="round"/>
  <path d="M303.102 77.0567C303.102 77.0567 300.878 75.4156 299.287 76.8149" stroke="#263238" stroke-width="2" stroke-miterlimit="10" stroke-linecap="round"/>
  <path d="M317.172 76.3281L322.676 80.5347" stroke="#263238" stroke-width="2" stroke-miterlimit="10" stroke-linecap="round"/>
  <path d="M285.512 74.8906L289.482 76.4904" stroke="#263238" stroke-width="2" stroke-miterlimit="10" stroke-linecap="round"/>
  <path d="M306.802 81.6022C306.951 82.0866 307.465 82.3588 307.95 82.2098C308.434 82.0608 308.706 81.5468 308.557 81.0624C308.409 80.5781 307.894 80.3058 307.41 80.4548C306.926 80.6038 306.654 81.117 306.802 81.6022Z" fill="#263238"/>
  <path d="M292.576 81.0319C292.725 81.5163 293.239 81.7885 293.723 81.6395C294.208 81.4905 294.48 80.9765 294.331 80.4921C294.182 80.0078 293.668 79.7355 293.184 79.8845C292.698 80.0335 292.427 80.5475 292.576 81.0319Z" fill="#263238"/>
  <path d="M306.193 71.6581C306.193 71.6581 310.136 69.0295 312.915 73.1284" stroke="#263238" stroke-width="2" stroke-miterlimit="10" stroke-linecap="round"/>
  <path d="M297.39 72.952C297.39 72.952 295.642 70.5574 291.422 73.2718" stroke="#263238" stroke-width="2" stroke-miterlimit="10" stroke-linecap="round"/>
  <path d="M299.45 80.3047C299.45 80.3047 298.974 83.6868 298.008 84.4894C297.041 85.292 294.619 86.9479 296.317 87.5376C298.015 88.1273 301.425 88.6959 302.718 88.2973C304.011 87.8995 304.16 86.7412 304.16 86.7412" stroke="#263238" stroke-miterlimit="10"/>
  <path d="M299.529 92.7175C299.529 92.7175 302.748 93.648 306.265 92.2628C309.782 90.8775 309.917 89.0156 309.917 89.0156" stroke="#263238" stroke-miterlimit="10"/>
  <path d="M308.92 88.4062L311.307 89.5926" stroke="#263238" stroke-miterlimit="10"/>
  <path d="M317.699 139.288C342.414 133.605 357.842 108.963 352.159 84.2484C346.476 59.5337 321.834 44.1054 297.119 49.7883C272.404 55.4712 256.976 80.1134 262.659 104.828C268.342 129.543 292.984 144.971 317.699 139.288Z" stroke="#263238" stroke-miterlimit="10"/>
  <path d="M81.1975 140.872C106.556 140.872 127.114 120.314 127.114 94.9553C127.114 69.5965 106.556 49.0391 81.1975 49.0391C55.8387 49.0391 35.2812 69.5965 35.2812 94.9553C35.2812 120.314 55.8387 140.872 81.1975 140.872Z" stroke="#263238" stroke-miterlimit="10"/>
  <path d="M89.7205 63.7752C89.7205 63.7752 92.7594 65.5115 95.6532 63.6309C98.547 61.7496 96.5213 60.8814 95.9426 59.7239C95.3638 58.5664 96.8107 58.277 97.1001 56.685C97.3895 55.093 96.3762 53.7912 95.7975 53.6461C95.2187 53.5011 95.3638 51.9099 95.3638 50.3179C95.3638 48.7259 93.4824 47.279 92.6143 47.279C91.7462 47.279 91.1674 46.1215 90.5886 44.6746C90.0099 43.2277 88.8524 41.9251 86.8259 42.7932C84.8003 43.6614 83.787 43.6614 82.7738 42.2145C81.7606 40.7676 79.3013 40.4782 78.4323 41.2012C77.5642 41.9251 77.1297 43.372 75.3935 41.9251C73.6572 40.4782 71.4864 40.7676 70.4732 41.7808C69.46 42.794 69.6051 43.9515 68.0131 43.3728C66.4211 42.794 63.8167 43.6621 63.2379 45.3984C62.6592 47.1347 59.476 49.0161 58.3177 48.5816C57.1602 48.1479 55.1345 48.5816 56.147 50.7523C57.1602 52.9231 56.0019 54.37 55.1337 54.37C54.2656 54.37 52.3842 54.9487 53.3975 56.8301C54.4107 58.7115 55.1337 60.1584 53.9762 60.7371C52.8187 61.3159 50.9373 61.461 52.3842 63.9203C53.8311 66.3804 54.9887 66.2353 54.555 67.6822C54.1205 69.1291 53.2524 69.5636 54.555 70.576C55.8576 71.5885 57.4488 72.0229 57.4488 72.8911C57.4488 73.7592 55.7125 74.1937 57.7382 74.9167C59.7638 75.6406 61.3558 75.7849 61.3558 75.7849C61.3558 75.7849 64.2496 67.9708 72.4981 65.3664C80.7458 62.762 85.5218 63.0514 87.4023 64.0638C89.286 65.0778 89.7205 63.7752 89.7205 63.7752Z" fill="#263238" stroke="#263238" stroke-miterlimit="10" stroke-linecap="round" stroke-linejoin="round"/>
  <path d="M81.1979 140.868C77.6357 140.868 74.1709 140.457 70.8426 139.689C69.012 130.16 67.2227 120.542 67.2227 120.542C67.2227 120.542 75.0562 118.387 77.4063 117.996C79.7565 117.604 86.8069 116.82 86.8069 116.82L97.3829 121.716C97.3829 121.716 98.6434 128.694 99.9125 136.887C94.1966 139.443 87.8646 140.868 81.1979 140.868Z" fill="white" stroke="#263238" stroke-miterlimit="10"/>
  <path d="M67.9004 124.175L97.2081 121.641L97.382 121.721C97.382 121.721 97.6348 123.119 98.0263 125.394L68.6071 127.938C68.3419 126.526 68.1024 125.251 67.9004 124.175Z" fill="#263238"/>
  <path d="M69.668 133.542L98.9726 131.008C99.1683 132.2 99.3735 133.466 99.5817 134.779L70.3848 137.304C70.1406 136.029 69.9004 134.767 69.668 133.542Z" fill="#263238"/>
  <path d="M88.3748 111.337C88.3748 111.337 90.5292 119.563 90.725 123.871C90.9207 128.18 86.4162 131.705 79.9531 131.118C73.4901 130.53 72.3154 123.48 72.3154 121.717C72.3154 119.954 71.9238 105.07 71.9238 105.07C71.9238 105.07 75.0571 107.812 78.7785 110.162C82.4991 112.512 88.3748 111.337 88.3748 111.337Z" fill="#B5B5B5" stroke="#263238" stroke-miterlimit="10"/>
  <path d="M82.4979 118.388C76.3772 115.455 73.3298 109.701 71.9476 106.042C71.932 105.43 71.9219 105.07 71.9219 105.07C71.9219 105.07 75.0551 107.812 78.7765 110.162C82.4979 112.512 88.3729 111.338 88.3729 111.338C88.3729 111.338 89.7191 116.479 90.3798 120.762C88.1498 120.501 85.4939 119.823 82.4979 118.388Z" fill="#263238" stroke="#263238" stroke-miterlimit="10"/>
  <path d="M97.2026 85.744C97.2026 85.744 100.322 81.6888 100.946 87.304C101.57 92.9193 95.6426 98.5337 95.6426 98.5337V85.744" fill="#B5B5B5"/>
  <path d="M97.2026 85.744C97.2026 85.744 100.322 81.6888 100.946 87.304C101.57 92.9193 95.6426 98.5337 95.6426 98.5337V85.744" stroke="#263238" stroke-miterlimit="10" stroke-linecap="round" stroke-linejoin="round"/>
  <path d="M61.5234 79.9043C61.5234 79.9043 61.7715 71.2182 64.9983 66.2543C68.2252 61.2904 75.0252 58.2461 82.6193 59.5534C92.0363 61.1742 96.2693 68.2402 97.7583 74.1963C99.2474 80.1524 97.5103 88.8392 97.5103 94.7953C97.5103 100.751 90.5613 111.423 88.5754 113.161C86.5903 114.898 83.5249 115.477 80.025 113.702C76.8122 112.072 71.5301 106.509 68.304 103.283C65.0779 100.056 63.1568 90.4679 62.6607 88.2339C62.1646 86 61.5234 79.9043 61.5234 79.9043Z" fill="#B5B5B5" stroke="#263238" stroke-miterlimit="10" stroke-linecap="round" stroke-linejoin="round"/>
  <path d="M87.8392 96.7734C87.8392 96.7734 88.1286 98.6548 83.7871 98.3654" stroke="#263238" stroke-miterlimit="10" stroke-linecap="round" stroke-linejoin="round"/>
  <path d="M89.1408 101.688C89.1408 101.688 84.0763 105.16 79.0117 101.832" stroke="#263238" stroke-miterlimit="10" stroke-linecap="round" stroke-linejoin="round"/>
  <path d="M89.1426 88.811C89.1426 89.85 89.6285 90.6924 90.2276 90.6924C90.8266 90.6924 91.3125 89.85 91.3125 88.811C91.3125 87.7721 90.8266 86.9297 90.2276 86.9297C89.6285 86.9297 89.1426 87.7721 89.1426 88.811Z" fill="#263238"/>
  <path d="M77.8438 89.7407C77.8438 90.7797 78.3297 91.6221 78.9287 91.6221C79.5278 91.6221 80.0137 90.7797 80.0137 89.7407C80.0137 88.7018 79.5278 87.8594 78.9287 87.8594C78.3297 87.8594 77.8438 88.7018 77.8438 89.7407Z" fill="#263238"/>
  <path d="M93.7722 82.8755C93.7722 82.8755 92.4696 79.9817 88.1289 81.4286" stroke="#263238" stroke-miterlimit="10" stroke-linecap="round" stroke-linejoin="round"/>
  <path d="M80.8933 82.5862C80.8933 82.5862 76.842 80.4154 72.3555 83.7437" stroke="#263238" stroke-miterlimit="10" stroke-linecap="round" stroke-linejoin="round"/>
  <path d="M49.2578 127.936C49.3514 126.624 49.1985 124.328 50.7812 123.454C51.8482 122.86 59.3471 121.124 65.116 119.84C68.8982 119.002 71.9348 118.359 71.9348 118.359C71.9348 118.359 72.6726 129.475 73.4924 140.227C64.1527 138.648 55.7732 134.25 49.2578 127.936Z" fill="#92E3A9" stroke="#263238" stroke-miterlimit="10"/>
  <path d="M100.733 136.515C99.7029 129.892 98.0743 123.32 97.1484 119.836C102.917 121.121 110.416 122.856 111.483 123.45C113.113 124.35 112.902 126.759 113.016 128.048C109.43 131.496 105.287 134.369 100.733 136.515Z" fill="#92E3A9" stroke="#263238" stroke-miterlimit="10"/>
  <path d="M65.4565 138.1C64.9222 128.357 65.1164 119.84 65.1164 119.84C68.8987 119.002 71.9352 118.359 71.9352 118.359C71.9352 118.359 72.6731 129.475 73.4929 140.227C70.7215 139.759 68.0352 139.042 65.4565 138.1Z" fill="#92E3A9" stroke="#263238" stroke-miterlimit="10"/>
  <path d="M82.6181 59.5455C92.0351 61.1663 96.2681 68.2316 97.7572 74.1884C98.0208 75.2445 98.1799 76.3888 98.2688 77.5853C97.9054 77.0074 97.453 76.3958 96.8898 75.7523C92.5226 70.7611 89.0914 68.5779 89.0914 68.5779C89.0914 68.5779 87.8434 71.6971 80.6689 75.4403C73.4945 79.1836 63.824 78.8716 63.824 78.8716C63.824 78.8716 65.6953 79.4956 64.136 82.9268C63.4621 84.4088 62.8475 85.6568 62.3654 86.5982C61.9419 83.8916 61.5215 79.8957 61.5215 79.8957C61.5215 79.8957 61.7695 71.2088 64.9964 66.2457C68.2232 61.2833 75.0241 58.2382 82.6181 59.5455Z" fill="#263238" stroke="#263238" stroke-miterlimit="10" stroke-linecap="round" stroke-linejoin="round"/>
  <path d="M64.7616 91.6648C64.7616 91.6648 62.8904 84.4903 59.7704 87.9215C56.6511 91.3528 60.3944 96.344 62.2656 98.8392C64.1376 101.334 67.2568 99.4632 67.2568 99.4632" fill="#B5B5B5"/>
  <path d="M64.7616 91.6648C64.7616 91.6648 62.8904 84.4903 59.7704 87.9215C56.6511 91.3528 60.3944 96.344 62.2656 98.8392C64.1376 101.334 67.2568 99.4632 67.2568 99.4632" stroke="#263238" stroke-miterlimit="10" stroke-linecap="round" stroke-linejoin="round"/>
  <path d="M90.3223 118.25L93.4251 139.166C93.4251 139.166 99.9755 137.327 102.16 135.718L98.0224 119.629C98.0224 119.629 95.2643 118.365 90.3223 118.25Z" fill="#92E3A9" stroke="#263238" stroke-miterlimit="10"/>
  <path d="M91.3316 252.195C116.064 246.593 131.573 222.002 125.971 197.27C120.369 172.537 95.7783 157.029 71.0458 162.631C46.3133 168.232 30.8048 192.823 36.4066 217.556C42.0083 242.288 66.5991 257.797 91.3316 252.195Z" fill="#92E3A9"/>
  <path d="M81.197 253.32C94.6574 253.32 106.754 247.52 115.151 238.291L92.8759 226.223L90.6638 215.161L74.9008 211.289L74.3478 226.223L48.1055 239.214C56.4569 247.905 68.1912 253.32 81.197 253.32Z" fill="white" stroke="#263238" stroke-miterlimit="10"/>
  <path d="M74.4766 222.711L88.7272 220.139L84.9364 213.755L74.8993 211.289L74.4766 222.711Z" fill="#263238" stroke="#263238" stroke-miterlimit="10"/>
  <path d="M97.0666 180.437C97.0666 180.437 81.0564 171.611 73.4615 172.226C65.8666 172.842 54.3718 188.647 52.935 196.242C51.4983 203.837 58.888 207.942 59.2983 208.558C59.7085 209.175 53.1402 208.764 53.7564 213.69C54.3718 218.617 62.1726 219.437 66.688 218.617C71.2042 217.795 74.2828 212.048 74.2828 211.227C74.2828 210.405 72.2299 204.864 72.2299 204.864C72.2299 204.864 76.5402 205.274 77.1564 201.58C77.7726 197.885 81.2615 189.674 85.9828 189.469C90.7042 189.264 94.399 189.879 94.8093 190.905C95.2196 191.932 95.6307 195.832 95.6307 195.832C95.6307 195.832 100.967 197.064 105.278 193.369C109.589 189.674 111.231 179.616 105.484 177.564C99.735 175.511 97.0666 180.437 97.0666 180.437Z" fill="#263238" stroke="#263238" stroke-miterlimit="10" stroke-linecap="round" stroke-linejoin="round"/>
  <path d="M70.2922 201.457L62.0391 206.141C62.0391 206.141 65.1614 209.933 66.4999 210.379C67.8384 210.825 70.0684 210.156 70.0684 210.156C70.0684 210.156 73.86 214.616 76.76 216.624C79.6593 218.632 86.574 222.423 90.3663 221.085C94.1579 219.746 99.7341 209.709 99.288 206.364C98.8418 203.019 96.8341 197.665 97.0572 194.989C97.2802 192.312 97.7264 188.074 97.7264 188.074C97.7264 188.074 88.5817 183.613 81.2208 187.851C73.8607 192.089 74.3069 199.895 70.2922 201.457Z" fill="white" stroke="#263238" stroke-miterlimit="10" stroke-linecap="round" stroke-linejoin="round"/>
  <path d="M90.3663 197.445L90.5893 200.122C90.5893 200.122 96.3886 200.792 94.1578 202.798C91.927 204.806 88.8047 205.252 88.8047 205.252" stroke="#263238" stroke-miterlimit="10" stroke-linecap="round" stroke-linejoin="round"/>
  <path d="M79.6602 195.656C79.6602 195.656 81.891 193.425 84.5671 193.648" stroke="#263238" stroke-miterlimit="10" stroke-linecap="round" stroke-linejoin="round"/>
  <path d="M91.2578 192.981C91.2578 192.981 93.4886 192.089 95.7186 193.873" stroke="#263238" stroke-miterlimit="10" stroke-linecap="round" stroke-linejoin="round"/>
  <path d="M83.7496 201.054C84.2834 201.054 84.716 200.295 84.716 199.359C84.716 198.423 84.2834 197.664 83.7496 197.664C83.2159 197.664 82.7832 198.423 82.7832 199.359C82.7832 200.295 83.2159 201.054 83.7496 201.054Z" fill="#263238"/>
  <path d="M94.7098 198.336C94.7098 199.272 94.2769 200.03 93.7426 200.03C93.2083 200.03 92.7754 199.272 92.7754 198.336C92.7754 197.4 93.2083 196.641 93.7426 196.641C94.2769 196.641 94.7098 197.4 94.7098 198.336Z" fill="#263238"/>
  <path d="M93.9833 207.971C93.9833 207.971 88.7292 211.013 84.0273 207.695" stroke="#263238" stroke-miterlimit="10" stroke-linecap="round" stroke-linejoin="round"/>
  <path d="M81.197 253.316C94.6605 253.316 106.761 247.513 115.157 238.28L100.087 229.562L94.8119 244.471L76.5599 244.748L64.668 231.197L64.3677 231.159L48.1055 239.21C56.4569 247.901 68.1912 253.316 81.197 253.316Z" fill="#263238" stroke="#263238" stroke-miterlimit="10"/>
  <path d="M91.3316 252.195C116.064 246.593 131.573 222.002 125.971 197.27C120.369 172.537 95.7783 157.029 71.0458 162.631C46.3133 168.232 30.8048 192.823 36.4066 217.556C42.0083 242.288 66.5991 257.797 91.3316 252.195Z" stroke="#263238" stroke-miterlimit="10"/>
  <path d="M195.412 114.381C195.412 114.381 196.788 117.133 197.574 120.081C198.361 123.03 198.164 125.192 199.933 126.568C201.702 127.944 203.668 128.337 203.275 130.106C202.882 131.875 201.309 132.268 201.309 132.268C201.309 132.268 200.326 141.113 199.933 144.258C199.54 147.403 189.122 144.258 189.122 144.258L187.157 154.282L174.381 155.068L173.005 144.258C173.005 144.258 167.895 138.165 166.519 129.124C165.143 120.082 170.253 109.469 181.063 109.469C191.874 109.468 195.412 114.381 195.412 114.381Z" fill="white" stroke="#263238" stroke-miterlimit="10"/>
  <path d="M200.524 137.185C200.524 137.185 198.165 137.971 196.789 136.398" stroke="#263238" stroke-miterlimit="10"/>
  <path d="M197.182 124.016L197.968 126.571" stroke="#263238" stroke-miterlimit="10"/>
  <path d="M197.182 122.438C197.182 122.438 195.609 122.438 195.609 124.01" stroke="#263238" stroke-miterlimit="10"/>
  <path d="M168.486 159.979C168.486 159.979 173.204 153.689 173.99 153.492C174.776 153.295 183.425 151.33 187.552 152.313C191.68 153.295 192.662 155.261 195.807 156.047C198.952 156.834 202.49 155.654 202.49 155.654C202.49 155.654 201.115 157.816 199.345 158.603C197.576 159.389 195.807 159.979 194.825 159.979C193.842 159.979 192.466 160.765 187.552 159.782C182.638 158.799 174.187 158.603 174.187 158.603L168.486 159.979Z" fill="white" stroke="#263238" stroke-miterlimit="10"/>
  <path d="M253.789 156.244C253.789 156.244 255.951 148.775 256.934 147.202C257.917 145.63 260.276 143.467 261.651 142.681C263.027 141.895 268.335 138.75 269.71 138.75C271.086 138.75 271.827 140.292 270.693 140.912C269.983 141.301 266.565 142.681 266.172 143.271C265.779 143.861 264.6 144.843 264.6 144.843L267.745 145.63C267.745 145.63 268.924 147.792 269.514 148.775C270.104 149.757 270.693 150.74 269.907 152.116C269.121 153.492 268.138 155.654 266.959 156.244C265.779 156.834 266.369 154.082 266.369 154.082C266.369 154.082 264.01 156.44 262.831 157.423C261.651 158.406 260.079 159.192 260.079 159.192L259.489 160.765L253.789 156.244Z" fill="white" stroke="#263238" stroke-miterlimit="10"/>
  <path d="M159.611 216.926C159.611 216.926 163.493 216.898 164.376 216.841C165.259 216.785 166.953 216.078 167.518 216.078C168.083 216.078 168.365 220.032 166.953 223.42C165.542 226.809 161.87 228.645 161.87 228.645L157.352 223.844C157.352 223.844 159.329 219.185 159.611 216.926Z" fill="white" stroke="#263238" stroke-miterlimit="10"/>
  <path d="M163.076 287.555C163.076 287.555 161.256 297.954 162.556 307.575C163.856 317.195 171.136 354.635 171.136 354.635L168.276 365.555C168.276 365.555 165.156 367.374 166.716 368.154C168.276 368.934 175.816 368.154 175.816 368.154C175.816 368.154 176.856 363.474 177.636 361.134C178.416 358.794 180.756 357.234 179.716 354.374C178.676 351.514 177.896 348.654 177.896 348.654L181.536 293.015L163.076 287.555Z" fill="white" stroke="#263238" stroke-miterlimit="10"/>
  <path d="M179.061 352.482C177.836 352.395 175.236 352.484 174.256 354.638C172.956 357.498 170.096 364.518 170.096 364.518L167.236 366.338L166.959 366.523C166.348 367.084 165.915 367.758 166.716 368.159C168.276 368.939 175.816 368.159 175.816 368.159C175.816 368.159 176.856 363.479 177.636 361.139C178.416 358.799 180.756 357.239 179.716 354.378C179.483 353.734 179.263 353.093 179.061 352.482Z" fill="#263238" stroke="#263238" stroke-miterlimit="10"/>
  <path d="M175.557 357.232L176.727 368.152H178.546L179.457 356.322C179.457 356.322 176.337 354.112 175.557 357.232Z" fill="#263238" stroke="#263238" stroke-miterlimit="10"/>
  <path d="M196.615 291.199L201.295 301.079C201.295 301.079 202.074 315.276 205.714 323.856C209.354 332.436 216.634 346.217 216.634 346.217L218.974 350.376C218.974 350.376 215.594 354.276 216.634 356.616C217.674 358.956 222.094 360.257 223.914 361.817C225.733 363.377 226.125 368.159 228.205 368.159C230.286 368.159 236.005 368.679 236.525 367.379C237.046 366.079 233.665 364.519 233.665 364.519C233.665 364.519 228.66 355.028 228.14 353.729C227.62 352.429 219.756 308.359 219.235 303.159C218.715 297.959 217.155 288.859 217.155 288.859L196.615 291.199Z" fill="white" stroke="#263238" stroke-miterlimit="10"/>
  <path d="M228.986 364.782C228.986 364.782 224.954 358.44 222.874 355.579C221.046 353.065 218.415 352.159 217.806 351.977C216.945 353.322 216.021 355.239 216.634 356.619C217.674 358.959 221.839 360.252 223.104 362.288C224.863 365.123 226.126 368.162 228.206 368.162C230.286 368.162 236.006 368.682 236.526 367.382C237.046 366.081 233.666 364.521 233.666 364.521C232.886 364.262 228.986 364.782 228.986 364.782Z" fill="#263238" stroke="#263238" stroke-miterlimit="10"/>
  <path d="M216.635 357.59L217.531 368.547H219.193L220.146 360.357C220.146 360.357 220.339 356.773 216.635 357.59Z" fill="#263238" stroke="#263238" stroke-miterlimit="10"/>
  <path d="M164.377 216.834C164.377 216.834 158.137 230.094 156.577 239.454C155.017 248.814 157.747 265.974 157.747 265.974L156.577 289.374C156.577 289.374 179.197 295.224 194.797 295.224C210.397 295.224 223.267 291.324 223.267 291.324C223.267 291.324 223.657 265.974 220.537 253.884C217.417 241.794 210.397 221.514 210.007 220.344C209.617 219.174 206.887 215.664 206.887 215.664C206.887 215.664 181.927 220.734 164.377 216.834Z" fill="#263238" stroke="#263238" stroke-miterlimit="10"/>
  <path d="M170.512 254.359L195.048 276.763" stroke="#707070" stroke-miterlimit="10"/>
  <path d="M178.514 268.766L189.715 277.833" stroke="#707070" stroke-miterlimit="10"/>
  <path d="M170.647 159.583C170.647 159.583 155.317 165.873 154.727 167.642C154.137 169.411 149.616 179.042 149.616 179.042C149.616 179.042 131.14 207.346 131.534 208.721C131.927 210.097 153.154 223.07 153.154 223.07C153.154 223.07 152.565 223.659 153.154 224.052C153.744 224.446 158.265 225.625 158.265 225.625C158.265 225.625 161.41 222.676 161.41 219.925C161.41 217.173 160.624 215.993 160.034 215.797C159.444 215.6 156.692 214.028 156.692 214.028L155.906 213.831L147.454 204.79L158.068 190.048C158.068 190.048 167.502 206.952 167.502 209.114C167.502 211.276 162.785 216.387 163.768 218.745C164.751 221.104 168.289 221.694 182.047 223.07C195.806 224.446 207.403 219.925 208.582 218.942C209.761 217.959 206.616 211.866 206.616 207.346C206.616 202.825 206.813 186.314 206.813 186.314C206.813 186.314 226.665 194.57 230.596 192.408C234.527 190.246 258.31 164.497 258.31 164.497L261.848 161.156L253.986 153.883L248.679 158.6L225.878 176.683C225.878 176.683 224.699 175.504 224.109 175.504C223.52 175.504 222.34 175.7 222.34 175.7C222.34 175.7 207.403 165.479 205.634 163.907C203.864 162.334 198.95 162.138 198.95 162.138L189.319 160.369C189.321 160.369 178.706 156.045 170.647 159.583Z" fill="white" stroke="#263238" stroke-miterlimit="10"/>
  <path d="M206.812 186.318L194.822 184.156" stroke="#263238" stroke-miterlimit="10"/>
  <path d="M203.668 185.922L192.66 189.263" stroke="#263238" stroke-miterlimit="10"/>
  <path d="M194.648 212.459C195.262 211.777 195.847 211.057 196.396 210.297" stroke="#263238" stroke-miterlimit="10"/>
  <path d="M179.492 222.283C179.492 222.283 186.806 219.889 192.794 214.336" stroke="#263238" stroke-miterlimit="10"/>
  <path d="M196.592 205.969C196.592 205.969 192.071 208.524 187.354 211.276" stroke="#263238" stroke-miterlimit="10"/>
  <path d="M154.614 181.203L158.069 190.047C158.069 190.047 151.386 184.74 150.6 182.381" stroke="#263238" stroke-miterlimit="10"/>
  <path d="M153.154 177.469L153.832 179.203" stroke="#263238" stroke-miterlimit="10"/>
  <path d="M146.473 188.477C146.473 188.477 150.011 190.246 155.514 188.87" stroke="#263238" stroke-miterlimit="10"/>
  <path d="M146.472 204.198C146.472 204.198 142.344 204.984 138.609 203.805" stroke="#263238" stroke-miterlimit="10"/>
  <path d="M141.164 201.25C141.164 201.25 144.112 202.626 146.275 202.626" stroke="#263238" stroke-miterlimit="10"/>
  <path d="M155.906 213.836C155.906 213.836 157.872 221.305 153.154 223.074L155.906 213.836Z" fill="white"/>
  <path d="M155.906 213.836C155.906 213.836 157.872 221.305 153.154 223.074" stroke="#263238" stroke-miterlimit="10"/>
  <path d="M250.055 157.422L258.309 164.498" stroke="#263238" stroke-miterlimit="10"/>
  <path d="M221.771 182.008C221.315 182.469 220.846 182.927 220.377 183.363" stroke="#263238" stroke-miterlimit="10"/>
  <path d="M225.88 177.469C225.88 177.469 224.787 178.796 223.291 180.416" stroke="#263238" stroke-miterlimit="10"/>
  <path d="M223.324 176.688C223.324 176.688 220.179 179.832 217.23 181.405" stroke="#263238" stroke-miterlimit="10"/>
  <path d="M195.98 110.486C195.98 110.486 197.373 114.108 194.587 123.301C191.801 132.495 189.294 138.624 190.686 144.475C192.079 150.326 195.422 151.441 195.979 150.605C196.536 149.768 197.929 148.655 197.929 148.655C197.929 148.655 198.486 150.883 195.979 152.834C193.472 154.784 183.721 156.735 177.592 155.898C171.462 155.063 167.561 157.57 165.333 152.277C163.105 146.984 164.218 138.625 163.661 135.282C163.105 131.939 157.532 127.481 161.433 117.451C165.334 107.421 180.935 106.308 186.228 106.308C191.522 106.307 195.145 104.635 195.98 110.486Z" fill="#263238" stroke="#263238" stroke-miterlimit="10"/>
  <path d="M261.483 107.871C268.849 107.871 274.821 101.9 274.821 94.5333C274.821 87.1669 268.849 81.1953 261.483 81.1953C254.116 81.1953 248.145 87.1669 248.145 94.5333C248.145 101.9 254.116 107.871 261.483 107.871Z" fill="white" stroke="#263238" stroke-miterlimit="10"/>
  <path d="M256.1 91.2591L261.82 97.4991L273.26 80.8594" stroke="#263238" stroke-width="3" stroke-miterlimit="10" stroke-linecap="round" stroke-linejoin="round"/>
  <path d="M48.1709 216.83C53.3796 211.621 53.3796 203.176 48.1709 197.967C42.9621 192.758 34.517 192.758 29.3083 197.967C24.0995 203.176 24.0995 211.621 29.3083 216.83C34.517 222.039 42.9621 222.039 48.1709 216.83Z" fill="white" stroke="#263238" stroke-miterlimit="10"/>
  <path d="M33.3594 204.126L39.0791 210.366L50.5194 193.727" stroke="#263238" stroke-width="3" stroke-miterlimit="10" stroke-linecap="round" stroke-linejoin="round"/>
  <path d="M73.3184 368.508H357.238" stroke="#263238" stroke-miterlimit="10"/>
  <path d="M42.1191 368.508H64.7391" stroke="#263238" stroke-miterlimit="10"/>
</svg>